  0
SECTION
  2
HEADER
  9
$ACADVER
  1
AC1021
  9
$ACADMAINTVER
 70
    25
  9
$DWGCODEPAGE
  3
ANSI_1252
  9
$INSBASE
 10
0.0
 20
0.0
 30
0.0
  9
$EXTMIN
 10
1.000000000000000E+20
 20
1.000000000000000E+20
 30
1.000000000000000E+20
  9
$EXTMAX
 10
-1.000000000000000E+20
 20
-1.000000000000000E+20
 30
-1.000000000000000E+20
  9
$LIMMIN
 10
0.0
 20
0.0
  9
$LIMMAX
 10
12.0
 20
9.0
  9
$ORTHOMODE
 70
     0
  9
$REGENMODE
 70
     1
  9
$FILLMODE
 70
     1
  9
$QTEXTMODE
 70
     0
  9
$MIRRTEXT
 70
     1
  9
$LTSCALE
 40
1.0
  9
$ATTMODE
 70
     1
  9
$TEXTSIZE
 40
0.2
  9
$TRACEWID
 40
0.05
  9
$TEXTSTYLE
  7
Standard
  9
$CLAYER
  8
0
  9
$CELTYPE
  6
ByLayer
  9
$CECOLOR
 62
   256
  9
$CELTSCALE
 40
1.0
  9
$DISPSILH
 70
     0
  9
$DIMSCALE
 40
1.0
  9
$DIMASZ
 40
0.18
  9
$DIMEXO
 40
0.0625
  9
$DIMDLI
 40
0.38
  9
$DIMRND
 40
0.0
  9
$DIMDLE
 40
0.0
  9
$DIMEXE
 40
0.18
  9
$DIMTP
 40
0.0
  9
$DIMTM
 40
0.0
  9
$DIMTXT
 40
0.18
  9
$DIMCEN
 40
0.09
  9
$DIMTSZ
 40
0.0
  9
$DIMTOL
 70
     0
  9
$DIMLIM
 70
     0
  9
$DIMTIH
 70
     1
  9
$DIMTOH
 70
     1
  9
$DIMSE1
 70
     0
  9
$DIMSE2
 70
     0
  9
$DIMTAD
 70
     0
  9
$DIMZIN
 70
     0
  9
$DIMBLK
  1

  9
$DIMASO
 70
     1
  9
$DIMSHO
 70
     1
  9
$DIMPOST
  1

  9
$DIMAPOST
  1

  9
$DIMALT
 70
     0
  9
$DIMALTD
 70
     2
  9
$DIMALTF
 40
25.4
  9
$DIMLFAC
 40
1.0
  9
$DIMTOFL
 70
     0
  9
$DIMTVP
 40
0.0
  9
$DIMTIX
 70
     0
  9
$DIMSOXD
 70
     0
  9
$DIMSAH
 70
     0
  9
$DIMBLK1
  1

  9
$DIMBLK2
  1

  9
$DIMSTYLE
  2
Standard
  9
$DIMCLRD
 70
     0
  9
$DIMCLRE
 70
     0
  9
$DIMCLRT
 70
     0
  9
$DIMTFAC
 40
1.0
  9
$DIMGAP
 40
0.09
  9
$DIMJUST
 70
     0
  9
$DIMSD1
 70
     0
  9
$DIMSD2
 70
     0
  9
$DIMTOLJ
 70
     1
  9
$DIMTZIN
 70
     0
  9
$DIMALTZ
 70
     0
  9
$DIMALTTZ
 70
     0
  9
$DIMUPT
 70
     0
  9
$DIMDEC
 70
     4
  9
$DIMTDEC
 70
     4
  9
$DIMALTU
 70
     2
  9
$DIMALTTD
 70
     2
  9
$DIMTXSTY
  7
Standard
  9
$DIMAUNIT
 70
     0
  9
$DIMADEC
 70
     0
  9
$DIMALTRND
 40
0.0
  9
$DIMAZIN
 70
     0
  9
$DIMDSEP
 70
    46
  9
$DIMATFIT
 70
     3
  9
$DIMFRAC
 70
     0
  9
$DIMLDRBLK
  1

  9
$DIMLUNIT
 70
     2
  9
$DIMLWD
 70
    -2
  9
$DIMLWE
 70
    -2
  9
$DIMTMOVE
 70
     0
  9
$DIMFXL
 40
1.0
  9
$DIMFXLON
 70
     0
  9
$DIMJOGANG
 40
0.7853981633974483
  9
$DIMTFILL
 70
     0
  9
$DIMTFILLCLR
 70
     0
  9
$DIMARCSYM
 70
     0
  9
$DIMLTYPE
  6

  9
$DIMLTEX1
  6

  9
$DIMLTEX2
  6

  9
$LUNITS
 70
     2
  9
$LUPREC
 70
     4
  9
$SKETCHINC
 40
0.1
  9
$FILLETRAD
 40
0.5
  9
$AUNITS
 70
     0
  9
$AUPREC
 70
     0
  9
$MENU
  1
.
  9
$ELEVATION
 40
0.0
  9
$PELEVATION
 40
0.0
  9
$THICKNESS
 40
0.0
  9
$LIMCHECK
 70
     0
  9
$CHAMFERA
 40
0.5
  9
$CHAMFERB
 40
0.5
  9
$CHAMFERC
 40
1.0
  9
$CHAMFERD
 40
0.0
  9
$SKPOLY
 70
     0
  9
$TDCREATE
 40
2457287.885102685
  9
$TDUCREATE
 40
2457287.843436019
  9
$TDUPDATE
 40
2457287.885102732
  9
$TDUUPDATE
 40
2457287.843436065
  9
$TDINDWG
 40
0.0000000116
  9
$TDUSRTIMER
 40
0.0000000116
  9
$USRTIMER
 70
     1
  9
$ANGBASE
 50
0.0
  9
$ANGDIR
 70
     0
  9
$PDMODE
 70
     0
  9
$PDSIZE
 40
0.0
  9
$PLINEWID
 40
0.0
  9
$SPLFRAME
 70
     0
  9
$SPLINETYPE
 70
     6
  9
$SPLINESEGS
 70
     8
  9
$HANDSEED
  5
66
  9
$SURFTAB1
 70
     6
  9
$SURFTAB2
 70
     6
  9
$SURFTYPE
 70
     6
  9
$SURFU
 70
     6
  9
$SURFV
 70
     6
  9
$UCSBASE
  2

  9
$UCSNAME
  2

  9
$UCSORG
 10
0.0
 20
0.0
 30
0.0
  9
$UCSXDIR
 10
1.0
 20
0.0
 30
0.0
  9
$UCSYDIR
 10
0.0
 20
1.0
 30
0.0
  9
$UCSORTHOREF
  2

  9
$UCSORTHOVIEW
 70
     0
  9
$UCSORGTOP
 10
0.0
 20
0.0
 30
0.0
  9
$UCSORGBOTTOM
 10
0.0
 20
0.0
 30
0.0
  9
$UCSORGLEFT
 10
0.0
 20
0.0
 30
0.0
  9
$UCSORGRIGHT
 10
0.0
 20
0.0
 30
0.0
  9
$UCSORGFRONT
 10
0.0
 20
0.0
 30
0.0
  9
$UCSORGBACK
 10
0.0
 20
0.0
 30
0.0
  9
$PUCSBASE
  2

  9
$PUCSNAME
  2

  9
$PUCSORG
 10
0.0
 20
0.0
 30
0.0
  9
$PUCSXDIR
 10
1.0
 20
0.0
 30
0.0
  9
$PUCSYDIR
 10
0.0
 20
1.0
 30
0.0
  9
$PUCSORTHOREF
  2

  9
$PUCSORTHOVIEW
 70
     0
  9
$PUCSORGTOP
 10
0.0
 20
0.0
 30
0.0
  9
$PUCSORGBOTTOM
 10
0.0
 20
0.0
 30
0.0
  9
$PUCSORGLEFT
 10
0.0
 20
0.0
 30
0.0
  9
$PUCSORGRIGHT
 10
0.0
 20
0.0
 30
0.0
  9
$PUCSORGFRONT
 10
0.0
 20
0.0
 30
0.0
  9
$PUCSORGBACK
 10
0.0
 20
0.0
 30
0.0
  9
$USERI1
 70
     0
  9
$USERI2
 70
     0
  9
$USERI3
 70
     0
  9
$USERI4
 70
     0
  9
$USERI5
 70
     0
  9
$USERR1
 40
0.0
  9
$USERR2
 40
0.0
  9
$USERR3
 40
0.0
  9
$USERR4
 40
0.0
  9
$USERR5
 40
0.0
  9
$WORLDVIEW
 70
     1
  9
$SHADEDGE
 70
     3
  9
$SHADEDIF
 70
    70
  9
$TILEMODE
 70
     1
  9
$MAXACTVP
 70
    64
  9
$PINSBASE
 10
0.0
 20
0.0
 30
0.0
  9
$PLIMCHECK
 70
     0
  9
$PEXTMIN
 10
1.000000000000000E+20
 20
1.000000000000000E+20
 30
1.000000000000000E+20
  9
$PEXTMAX
 10
-1.000000000000000E+20
 20
-1.000000000000000E+20
 30
-1.000000000000000E+20
  9
$PLIMMIN
 10
0.0
 20
0.0
  9
$PLIMMAX
 10
12.0
 20
9.0
  9
$UNITMODE
 70
     0
  9
$VISRETAIN
 70
     1
  9
$PLINEGEN
 70
     0
  9
$PSLTSCALE
 70
     1
  9
$TREEDEPTH
 70
  3020
  9
$CMLSTYLE
  2
Standard
  9
$CMLJUST
 70
     0
  9
$CMLSCALE
 40
1.0
  9
$PROXYGRAPHICS
 70
     1
  9
$MEASUREMENT
 70
     0
  9
$CELWEIGHT
370
    -1
  9
$ENDCAPS
280
     0
  9
$JOINSTYLE
280
     0
  9
$LWDISPLAY
290
     1
  9
$INSUNITS
 70
     1
  9
$HYPERLINKBASE
  1

  9
$STYLESHEET
  1

  9
$XEDIT
290
     1
  9
$CEPSNTYPE
380
     0
  9
$PSTYLEMODE
290
     1
  9
$FINGERPRINTGUID
  2
{897263F6-1687-45B0-9FB2-6DAD0D6C875D}
  9
$VERSIONGUID
  2
{FAEB1C32-E019-11D5-929B-00C0DF256EC4}
  9
$EXTNAMES
290
     1
  9
$PSVPSCALE
 40
0.0
  9
$OLESTARTUP
290
     0
  9
$SORTENTS
280
   127
  9
$INDEXCTL
280
     0
  9
$HIDETEXT
280
     1
  9
$XCLIPFRAME
290
     0
  9
$HALOGAP
280
     0
  9
$OBSCOLOR
 70
   257
  9
$OBSLTYPE
280
     0
  9
$INTERSECTIONDISPLAY
280
     0
  9
$INTERSECTIONCOLOR
 70
   257
  9
$DIMASSOC
280
     2
  9
$PROJECTNAME
  1

  9
$CAMERADISPLAY
290
     0
  9
$LENSLENGTH
 40
50.0
  9
$CAMERAHEIGHT
 40
0.0
  9
$STEPSPERSEC
 40
2.0
  9
$STEPSIZE
 40
6.0
  9
$3DDWFPREC
 40
2.0
  9
$PSOLWIDTH
 40
0.25
  9
$PSOLHEIGHT
 40
4.0
  9
$LOFTANG1
 40
1.570796326794897
  9
$LOFTANG2
 40
1.570796326794897
  9
$LOFTMAG1
 40
0.0
  9
$LOFTMAG2
 40
0.0
  9
$LOFTPARAM
 70
     7
  9
$LOFTNORMALS
280
     1
  9
$LATITUDE
 40
37.795
  9
$LONGITUDE
 40
-122.394
  9
$NORTHDIRECTION
 40
0.0
  9
$TIMEZONE
 70
 -8000
  9
$LIGHTGLYPHDISPLAY
280
     1
  9
$TILEMODELIGHTSYNCH
280
     1
  9
$CMATERIAL
347
3C
  9
$SOLIDHIST
280
     1
  9
$SHOWHIST
280
     1
  9
$DWFFRAME
280
     2
  9
$DGNFRAME
280
     2
  9
$REALWORLDSCALE
290
     1
  9
$INTERFERECOLOR
 62
   256
  9
$CSHADOW
280
     0
  9
$SHADOWPLANELOCATION
 40
0.0
  0
ENDSEC
  0
SECTION
  2
CLASSES
  0
CLASS
  1
ACDBDICTIONARYWDFLT
  2
AcDbDictionaryWithDefault
  3
ObjectDBX Classes
 90
        0
 91
        4
280
     0
281
     0
  0
CLASS
  1
VISUALSTYLE
  2
AcDbVisualStyle
  3
ObjectDBX Classes
 90
     4095
 91
        4
280
     0
281
     0
  0
CLASS
  1
MATERIAL
  2
AcDbMaterial
  3
ObjectDBX Classes
 90
     1153
 91
        4
280
     0
281
     0
  0
CLASS
  1
SUN
  2
AcDbSun
  3
SCENEOE
 90
     1024
 91
        4
280
     0
281
     0
  0
ENDSEC
  0
SECTION
  2
TABLES
  0
TABLE
  2
VPORT
  5
8
330
0
100
AcDbSymbolTable
 70
     1
  0
VPORT
  5
29
330
8
100
AcDbSymbolTableRecord
100
AcDbViewportTableRecord
  2
*Active
 70
     0
 10
0.0
 20
0.0
 11
1.0
 21
1.0
 12
0.0
 22
0.0
 13
0.0
 23
0.0
 14
0.5
 24
0.5
 15
0.5
 25
0.5
 16
0.0
 26
0.0
 36
1.0
 17
4.999919443194448
 27
-4.999919443194448
 37
0.0
 40
9.999838886388897
 41
1.0
 42
50.0
 43
0.0
 44
0.0
 50
0.0
 51
0.0
 71
     0
 72
   100
 73
     1
 74
     3
 75
     0
 76
     0
 77
     0
 78
     0
281
     0
 65
     1
110
0.0
120
0.0
130
0.0
111
1.0
121
0.0
131
0.0
112
0.0
122
1.0
132
0.0
 79
     0
146
0.0
 60
     3
 61
     5
292
     1
282
     1
141
0.0
142
0.0
 63
   250
361
3F
  0
ENDTAB
  0
TABLE
  2
LTYPE
  5
5
330
0
100
AcDbSymbolTable
 70
     1
  0
LTYPE
  5
14
330
5
100
AcDbSymbolTableRecord
100
AcDbLinetypeTableRecord
  2
ByBlock
 70
     0
  3

 72
    65
 73
     0
 40
0.0
  0
LTYPE
  5
15
330
5
100
AcDbSymbolTableRecord
100
AcDbLinetypeTableRecord
  2
ByLayer
 70
     0
  3

 72
    65
 73
     0
 40
0.0
  0
LTYPE
  5
16
330
5
100
AcDbSymbolTableRecord
100
AcDbLinetypeTableRecord
  2
Continuous
 70
     0
  3
Solid line
 72
    65
 73
     0
 40
0.0
  0
ENDTAB
  0
TABLE
  2
LAYER
  5
2
330
0
100
AcDbSymbolTable
 70
     2
  0
LAYER
  5
10
330
2
100
AcDbSymbolTableRecord
100
AcDbLayerTableRecord
  2
0
 70
     0
 62
     7
  6
Continuous
370
    -3
390
F
347
3E
  0
LAYER
  5
40
330
2
100
AcDbSymbolTableRecord
100
AcDbLayerTableRecord
  2
Layer 1
 70
     0
 62
     7
  6
Continuous
370
    -3
390
F
347
3E
  0
ENDTAB
  0
TABLE
  2
STYLE
  5
3
330
0
100
AcDbSymbolTable
 70
     1
  0
STYLE
  5
11
330
3
100
AcDbSymbolTableRecord
100
AcDbTextStyleTableRecord
  2
Standard
 70
     0
 40
0.0
 41
1.0
 50
0.0
 71
     0
 42
0.2
  3
txt
  4

  0
ENDTAB
  0
TABLE
  2
VIEW
  5
6
330
0
100
AcDbSymbolTable
 70
     0
  0
ENDTAB
  0
TABLE
  2
UCS
  5
7
330
0
100
AcDbSymbolTable
 70
     0
  0
ENDTAB
  0
TABLE
  2
APPID
  5
9
330
0
100
AcDbSymbolTable
 70
     1
  0
APPID
  5
12
330
9
100
AcDbSymbolTableRecord
100
AcDbRegAppTableRecord
  2
ACAD
 70
     0
  0
ENDTAB
  0
TABLE
  2
DIMSTYLE
  5
A
330
0
100
AcDbSymbolTable
 70
     1
100
AcDbDimStyleTable
  0
DIMSTYLE
105
27
330
A
100
AcDbSymbolTableRecord
100
AcDbDimStyleTableRecord
  2
Standard
 70
     0
178
     0
340
11
  0
ENDTAB
  0
TABLE
  2
BLOCK_RECORD
  5
1
330
0
100
AcDbSymbolTable
 70
     1
  0
BLOCK_RECORD
  5
1F
330
1
100
AcDbSymbolTableRecord
100
AcDbBlockTableRecord
  2
*Model_Space
340
22
 70
     0
280
     1
281
     0
  0
BLOCK_RECORD
  5
1B
330
1
100
AcDbSymbolTableRecord
100
AcDbBlockTableRecord
  2
*Paper_Space
340
1E
 70
     0
280
     1
281
     0
  0
BLOCK_RECORD
  5
23
330
1
100
AcDbSymbolTableRecord
100
AcDbBlockTableRecord
  2
*Paper_Space0
340
26
 70
     0
280
     1
281
     0
  0
ENDTAB
  0
ENDSEC
  0
SECTION
  2
BLOCKS
  0
BLOCK
  5
20
330
1F
100
AcDbEntity
  8
0
100
AcDbBlockBegin
  2
*Model_Space
 70
     0
 10
0.0
 20
0.0
 30
0.0
  3
*Model_Space
  1

  0
ENDBLK
  5
21
330
1F
100
AcDbEntity
  8
0
100
AcDbBlockEnd
  0
BLOCK
  5
1C
330
1B
100
AcDbEntity
 67
     1
  8
0
100
AcDbBlockBegin
  2
*Paper_Space
 70
     0
 10
0.0
 20
0.0
 30
0.0
  3
*Paper_Space
  1

  0
ENDBLK
  5
1D
330
1B
100
AcDbEntity
 67
     1
  8
0
100
AcDbBlockEnd
  0
BLOCK
  5
24
330
23
100
AcDbEntity
  8
0
100
AcDbBlockBegin
  2
*Paper_Space0
 70
     0
 10
0.0
 20
0.0
 30
0.0
  3
*Paper_Space0
  1

  0
ENDBLK
  5
25
330
23
100
AcDbEntity
  8
0
100
AcDbBlockEnd
  0
ENDSEC
  0
SECTION
  2
ENTITIES
  0
SPLINE
  5
41
330
1F
100
AcDbEntity
  8
Layer 1
370
     0
100
AcDbSpline
210
0.0
220
0.0
230
1.0
 70
    11
 71
     3
 72
   371
 73
   367
 74
     0
 42
0.0000000001
 43
0.0000000001
 12
1.0
 22
0.0
 32
0.0
 13
1.0
 23
0.0
 33
0.0
 40
0.0
 40
0.0
 40
0.0
 40
0.0
 40
1.0
 40
1.0
 40
1.0
 40
2.0
 40
2.0
 40
2.0
 40
3.0
 40
3.0
 40
3.0
 40
4.0
 40
4.0
 40
4.0
 40
5.0
 40
5.0
 40
5.0
 40
6.0
 40
6.0
 40
6.0
 40
7.0
 40
7.0
 40
7.0
 40
8.0
 40
8.0
 40
8.0
 40
9.0
 40
9.0
 40
9.0
 40
10.0
 40
10.0
 40
10.0
 40
11.0
 40
11.0
 40
11.0
 40
12.0
 40
12.0
 40
12.0
 40
13.0
 40
13.0
 40
13.0
 40
14.0
 40
14.0
 40
14.0
 40
15.0
 40
15.0
 40
15.0
 40
16.0
 40
16.0
 40
16.0
 40
17.0
 40
17.0
 40
17.0
 40
18.0
 40
18.0
 40
18.0
 40
19.0
 40
19.0
 40
19.0
 40
20.0
 40
20.0
 40
20.0
 40
21.0
 40
21.0
 40
21.0
 40
22.0
 40
22.0
 40
22.0
 40
23.0
 40
23.0
 40
23.0
 40
24.0
 40
24.0
 40
24.0
 40
25.0
 40
25.0
 40
25.0
 40
26.0
 40
26.0
 40
26.0
 40
27.0
 40
27.0
 40
27.0
 40
28.0
 40
28.0
 40
28.0
 40
29.0
 40
29.0
 40
29.0
 40
30.0
 40
30.0
 40
30.0
 40
31.0
 40
31.0
 40
31.0
 40
32.0
 40
32.0
 40
32.0
 40
33.0
 40
33.0
 40
33.0
 40
34.0
 40
34.0
 40
34.0
 40
35.0
 40
35.0
 40
35.0
 40
36.0
 40
36.0
 40
36.0
 40
37.0
 40
37.0
 40
37.0
 40
38.0
 40
38.0
 40
38.0
 40
39.0
 40
39.0
 40
39.0
 40
40.0
 40
40.0
 40
40.0
 40
41.0
 40
41.0
 40
41.0
 40
42.0
 40
42.0
 40
42.0
 40
43.0
 40
43.0
 40
43.0
 40
44.0
 40
44.0
 40
44.0
 40
45.0
 40
45.0
 40
45.0
 40
46.0
 40
46.0
 40
46.0
 40
47.0
 40
47.0
 40
47.0
 40
48.0
 40
48.0
 40
48.0
 40
49.0
 40
49.0
 40
49.0
 40
50.0
 40
50.0
 40
50.0
 40
51.0
 40
51.0
 40
51.0
 40
52.0
 40
52.0
 40
52.0
 40
53.0
 40
53.0
 40
53.0
 40
54.0
 40
54.0
 40
54.0
 40
55.0
 40
55.0
 40
55.0
 40
56.0
 40
56.0
 40
56.0
 40
57.0
 40
57.0
 40
57.0
 40
58.0
 40
58.0
 40
58.0
 40
59.0
 40
59.0
 40
59.0
 40
60.0
 40
60.0
 40
60.0
 40
61.0
 40
61.0
 40
61.0
 40
62.0
 40
62.0
 40
62.0
 40
63.0
 40
63.0
 40
63.0
 40
64.0
 40
64.0
 40
64.0
 40
65.0
 40
65.0
 40
65.0
 40
66.0
 40
66.0
 40
66.0
 40
67.0
 40
67.0
 40
67.0
 40
68.0
 40
68.0
 40
68.0
 40
69.0
 40
69.0
 40
69.0
 40
70.0
 40
70.0
 40
70.0
 40
71.0
 40
71.0
 40
71.0
 40
72.0
 40
72.0
 40
72.0
 40
73.0
 40
73.0
 40
73.0
 40
74.0
 40
74.0
 40
74.0
 40
75.0
 40
75.0
 40
75.0
 40
76.0
 40
76.0
 40
76.0
 40
77.0
 40
77.0
 40
77.0
 40
78.0
 40
78.0
 40
78.0
 40
79.0
 40
79.0
 40
79.0
 40
80.0
 40
80.0
 40
80.0
 40
81.0
 40
81.0
 40
81.0
 40
82.0
 40
82.0
 40
82.0
 40
83.0
 40
83.0
 40
83.0
 40
84.0
 40
84.0
 40
84.0
 40
85.0
 40
85.0
 40
85.0
 40
86.0
 40
86.0
 40
86.0
 40
87.0
 40
87.0
 40
87.0
 40
88.0
 40
88.0
 40
88.0
 40
89.0
 40
89.0
 40
89.0
 40
90.0
 40
90.0
 40
90.0
 40
91.0
 40
91.0
 40
91.0
 40
92.0
 40
92.0
 40
92.0
 40
93.0
 40
93.0
 40
93.0
 40
94.0
 40
94.0
 40
94.0
 40
95.0
 40
95.0
 40
95.0
 40
96.0
 40
96.0
 40
96.0
 40
97.0
 40
97.0
 40
97.0
 40
98.0
 40
98.0
 40
98.0
 40
99.0
 40
99.0
 40
99.0
 40
100.0
 40
100.0
 40
100.0
 40
101.0
 40
101.0
 40
101.0
 40
102.0
 40
102.0
 40
102.0
 40
103.0
 40
103.0
 40
103.0
 40
104.0
 40
104.0
 40
104.0
 40
105.0
 40
105.0
 40
105.0
 40
106.0
 40
106.0
 40
106.0
 40
107.0
 40
107.0
 40
107.0
 40
108.0
 40
108.0
 40
108.0
 40
109.0
 40
109.0
 40
109.0
 40
110.0
 40
110.0
 40
110.0
 40
111.0
 40
111.0
 40
111.0
 40
112.0
 40
112.0
 40
112.0
 40
113.0
 40
113.0
 40
113.0
 40
114.0
 40
114.0
 40
114.0
 40
115.0
 40
115.0
 40
115.0
 40
116.0
 40
116.0
 40
116.0
 40
117.0
 40
117.0
 40
117.0
 40
118.0
 40
118.0
 40
118.0
 40
119.0
 40
119.0
 40
119.0
 40
120.0
 40
120.0
 40
120.0
 40
121.0
 40
121.0
 40
121.0
 40
122.0
 40
122.0
 40
122.0
 40
122.0
 10
9.92686786226746
 20
-4.908363944832876
 30
0.0
 10
9.92686786226746
 20
-3.804084527364016
 30
0.0
 10
9.496833730795325
 20
-2.765900024494051
 30
0.0
 10
8.715986059124084
 20
-1.985052352822809
 30
0.0
 10
7.935138387452843
 20
-1.20421365290591
 30
0.0
 10
6.896962856337283
 20
-0.7741795214337747
 30
0.0
 10
5.792683438868393
 20
-0.7741795214337747
 30
0.0
 10
4.688404021399533
 20
-0.7741795214337747
 30
0.0
 10
3.650210546775194
 20
-1.20421365290591
 30
0.0
 10
2.86936287510392
 20
-1.985052352822809
 30
0.0
 10
2.088533146941459
 20
-2.765891052739677
 30
0.0
 10
1.658499015469292
 20
-3.804084527364016
 30
0.0
 10
1.658499015469292
 20
-4.908363944832876
 30
0.0
 10
1.658499015469292
 20
-5.17529382441418
 30
0.0
 10
1.683859922194215
 20
-5.438297439980165
 30
0.0
 10
1.732994856586134
 20
-5.69480214095907
 30
0.0
 10
1.698086881719838
 20
-5.700292854646412
 30
0.0
 10
1.661689595624619
 20
-5.703640440503543
 30
0.0
 10
1.625734168433174
 20
-5.706806348334261
 30
0.0
 10
1.586240505603748
 20
-5.710332247809954
 30
0.0
 10
1.547704577555537
 20
-5.713737028601372
 30
0.0
 10
1.512512870956639
 20
-5.719891652113616
 30
0.0
 10
1.062081455876402
 20
-5.798160115951952
 30
0.0
 10
0.7503814004144213
 20
-6.192011161964958
 30
0.0
 10
0.5551291096018311
 20
-6.481484817392426
 30
0.0
 10
0.4098842562957259
 20
-6.696812530124249
 30
0.0
 10
0.3703322770627399
 20
-6.894276358394257
 30
0.0
 10
0.4342010751033823
 20
-7.085107817230622
 30
0.0
 10
0.4570846561470658
 20
-7.15339856871673
 30
0.0
 10
0.5265697724365116
 20
-7.361138420172369
 30
0.0
 10
0.67731094677645
 20
-7.361138420172369
 30
0.0
 10
0.6881252752255543
 20
-7.361138420172369
 30
0.0
 10
0.6991784766353583
 20
-7.360003493241897
 30
0.0
 10
0.7086784430661872
 20
-7.358031950214484
 30
0.0
 10
0.7328158267860088
 20
-7.456315276629916
 30
0.0
 10
0.6513208957748486
 20
-7.567445033864004
 30
0.0
 10
0.5884075895768761
 20
-7.653301358978525
 30
0.0
 10
0.5884075895768761
 20
-7.653301358978525
 30
0.0
 10
0.5620003519960772
 20
-7.689626871038655
 30
0.0
 10
0.5620003519960772
 20
-7.689626871038655
 30
0.0
 10
0.4217146359296056
 20
-7.884760286105516
 30
0.0
 10
0.3172766860019292
 20
-8.072605272198965
 30
0.0
 10
0.2425330001700129
 20
-8.263794479741694
 30
0.0
 10
0.2425330001700129
 20
-8.263794479741694
 30
0.0
 10
0.2315997959752111
 20
-8.291637198025043
 30
0.0
 10
0.2315997959752111
 20
-8.291637198025043
 30
0.0
 10
0.2048931260916394
 20
-8.359569079335547
 30
0.0
 10
0.1716135246473217
 20
-8.444111042431793
 30
0.0
 10
0.1501048649640509
 20
-8.529071313576475
 30
0.0
 10
0.1171841336953708
 20
-8.659498193036448
 30
0.0
 10
0.1192151145956486
 20
-8.76250178373088
 30
0.0
 10
0.156378364221992
 20
-8.843877838996406
 30
0.0
 10
0.1964686487184504
 20
-8.931885142226143
 30
0.0
 10
0.2870441166426645
 20
-8.984163555062878
 30
0.0
 10
0.4256577219844959
 20
-8.999219280400341
 30
0.0
 10
0.4736936164635036
 20
-9.004476728473506
 30
0.0
 10
0.5224472512938184
 20
-9.007225449725091
 30
0.0
 10
0.5712008861241012
 20
-9.007225449725091
 30
0.0
 10
0.6447490856834074
 20
-9.007225449725091
 30
0.0
 10
0.7166251745180413
 20
-9.000951950467119
 30
0.0
 10
0.7950719519748757
 20
-8.98667228188446
 30
0.0
 10
0.8793156042375888
 20
-8.971557118674099
 30
0.0
 10
1.036091404874801
 20
-8.943416089557282
 30
0.0
 10
1.033999864632386
 20
-8.813585831764309
 30
0.0
 10
1.032864937701945
 20
-8.736811165032115
 30
0.0
 10
0.9874577672594881
 20
-8.677781507016135
 30
0.0
 10
0.9435432724538688
 20
-8.620662832685497
 30
0.0
 10
0.9139690055730466
 20
-8.582186342510152
 30
0.0
 10
0.8860074115440322
 20
-8.54585970898078
 30
0.0
 10
0.8741770319101204
 20
-8.507323780932538
 30
0.0
 10
0.8569703284573776
 20
-8.451221157786705
 30
0.0
 10
0.8844541765650572
 20
-8.390577705449614
 30
0.0
 10
0.9558513980090834
 20
-8.32712609398817
 30
0.0
 10
1.050968816593798
 20
-8.24252469301909
 30
0.0
 10
1.281711124838786
 20
-8.067825570047134
 30
0.0
 10
1.387702309745438
 20
-8.067825570047134
 30
0.0
 10
1.407776610195431
 20
-8.067825570047134
 30
0.0
 10
1.415066160638147
 20
-8.074397380138576
 30
0.0
 10
1.419129243908007
 20
-8.080073136260243
 30
0.0
 10
1.457127988162018
 20
-8.13306816797895
 30
0.0
 10
1.468479500405323
 20
-8.200403427622387
 30
0.0
 10
1.480489315127037
 20
-8.271621213978579
 30
0.0
 10
1.488434925109618
 20
-8.318582740869315
 30
0.0
 10
1.496620529522172
 20
-8.367156940611796
 30
0.0
 10
1.513230611307914
 20
-8.411967489387187
 30
0.0
 10
1.539877843318654
 20
-8.483842456752582
 30
0.0
 10
1.568914926405308
 20
-8.569639343994268
 30
0.0
 10
1.582178543803193
 20
-8.660991990142591
 30
0.0
 10
1.602730590174489
 20
-8.802592068227337
 30
0.0
 10
1.665763893587463
 20
-8.882474326386722
 30
0.0
 10
1.769485224633169
 20
-8.898546102908993
 30
0.0
 10
1.815012392290596
 20
-8.905595658921769
 30
0.0
 10
1.864004900081546
 20
-8.907866634252018
 30
0.0
 10
1.91550613469411
 20
-8.910197047455101
 30
0.0
 10
1.91550613469411
 20
-8.910197047455101
 30
0.0
 10
1.964618639700062
 20
-8.912586898531018
 30
0.0
 10
1.964618639700062
 20
-8.912586898531018
 30
0.0
 10
1.977582824795141
 20
-8.913244079540155
 30
0.0
 10
1.990070385438191
 20
-8.91360182824652
 30
0.0
 10
2.00213963803277
 20
-8.91360182824652
 30
0.0
 10
2.20922230847924
 20
-8.91360182824652
 30
0.0
 10
2.288625699248017
 20
-8.811973158912501
 30
0.0
 10
2.317483347246837
 20
-8.751389144448307
 30
0.0
 10
2.359365739682906
 20
-8.663381841218506
 30
0.0
 10
2.346699865421326
 20
-8.561274304493912
 30
0.0
 10
2.306071275661427
 20
-8.511505739948063
 30
0.0
 10
2.241664172357313
 20
-8.44775581765315
 30
0.0
 10
2.223501977061932
 20
-8.378628450070037
 30
0.0
 10
2.202530501172828
 20
-8.298567878292154
 30
0.0
 10
2.197989671981633
 20
-8.281360053370108
 30
0.0
 10
2.160587549394622
 20
-8.148005017570746
 30
0.0
 10
2.160587549394622
 20
-8.148005017570746
 30
0.0
 10
2.137166784556771
 20
-8.064001359737974
 30
0.0
 10
2.112909403621948
 20
-7.977189542780782
 30
0.0
 10
2.082737393604821
 20
-7.893304760693739
 30
0.0
 10
2.082737393604821
 20
-7.893304760693739
 30
0.0
 10
2.072461370419188
 20
-7.86593978833166
 30
0.0
 10
2.072461370419188
 20
-7.86593978833166
 30
0.0
 10
2.048681735405668
 20
-7.804281406279131
 30
0.0
 10
2.048622297532835
 20
-7.778530228238229
 30
0.0
 10
2.052744818675528
 20
-7.767776459131262
 30
0.0
 10
2.07795769145299
 20
-7.702173869554537
 30
0.0
 10
2.429927466499264
 20
-7.598094789802467
 30
0.0
 10
2.552647608937323
 20
-7.598094789802467
 30
0.0
 10
2.555455768061741
 20
-7.598094789802467
 30
0.0
 10
2.557785059795519
 20
-7.598154227675299
 30
0.0
 10
2.559697164950099
 20
-7.598274224890269
 30
0.0
 10
2.563282502298625
 20
-7.609686296475743
 30
0.0
 10
2.566687283090042
 20
-7.631852137168119
 30
0.0
 10
2.563521375259292
 20
-7.673614532389218
 30
0.0
 10
2.554558592622631
 20
-7.792750458948056
 30
0.0
 10
2.528090795699694
 20
-7.91379736919217
 30
0.0
 10
2.502519052746595
 20
-8.030901193381458
 30
0.0
 10
2.490630356709156
 20
-8.085391143675547
 30
0.0
 10
2.478740539202411
 20
-8.139700537412528
 30
0.0
 10
2.46852395388958
 20
-8.193950493276612
 30
0.0
 10
2.454602034013253
 20
-8.26761869005092
 30
0.0
 10
2.440144051812063
 20
-8.341166889610193
 30
0.0
 10
2.425684948141568
 20
-8.414715089169468
 30
0.0
 10
2.410748098549771
 20
-8.490654261273962
 30
0.0
 10
2.395811248957973
 20
-8.566592311909217
 30
0.0
 10
2.381472142502449
 20
-8.642650359759376
 30
0.0
 10
2.381472142502449
 20
-8.642650359759376
 30
0.0
 10
2.372928789383563
 20
-8.686085987174355
 30
0.0
 10
2.372928789383563
 20
-8.686085987174355
 30
0.0
 10
2.349746897506379
 20
-8.800681084542063
 30
0.0
 10
2.32351797354411
 20
-8.930570780207868
 30
0.0
 10
2.383503123402727
 20
-9.040086743120908
 30
0.0
 10
2.395751811085109
 20
-9.06231202168618
 30
0.0
 10
2.410389228374133
 20
-9.082685754438947
 30
0.0
 10
2.427119307374846
 20
-9.100550760370131
 30
0.0
 10
2.493616829452071
 20
-9.171768546726323
 30
0.0
 10
2.591901277336809
 20
-9.207915745167892
 30
0.0
 10
2.719162248966064
 20
-9.207915745167892
 30
0.0
 10
2.776040928866762
 20
-9.207915745167892
 30
0.0
 10
2.837699310919292
 20
-9.200925627028012
 30
0.0
 10
2.907663294599346
 20
-9.186645958445288
 30
0.0
 10
3.030503434252407
 20
-9.161431964198554
 30
0.0
 10
3.200004547024063
 20
-9.115665923580492
 30
0.0
 10
3.253419008260511
 20
-9.009196992752505
 30
0.0
 10
3.276600900137695
 20
-8.962893768340274
 30
0.0
 10
3.275285416650115
 20
-8.911511409473377
 30
0.0
 10
3.249415362863484
 20
-8.856543713257954
 30
0.0
 10
3.233702456516851
 20
-8.823026360322242
 30
0.0
 10
3.21153549435517
 20
-8.795483074341728
 30
0.0
 10
3.190026834671899
 20
-8.76883584233099
 30
0.0
 10
3.171087461152378
 20
-8.745295080278137
 30
0.0
 10
3.153223576690466
 20
-8.723069801712928
 30
0.0
 10
3.141034326880917
 20
-8.698394112729602
 30
0.0
 10
3.120242286079649
 20
-8.65633228520573
 30
0.0
 10
3.118091307964401
 20
-8.605009364211664
 30
0.0
 10
3.133984770868173
 20
-8.531998348446558
 30
0.0
 10
3.142109815938557
 20
-8.494956217504523
 30
0.0
 10
3.153640763269664
 20
-8.45892789480862
 30
0.0
 10
3.165112272727938
 20
-8.422841255709189
 30
0.0
 10
3.1743733661981
 20
-8.393744734749701
 30
0.0
 10
3.183634459668261
 20
-8.364707651663046
 30
0.0
 10
3.191281758817342
 20
-8.335192822655058
 30
0.0
 10
3.201498344130173
 20
-8.29593915425554
 30
0.0
 10
3.208608459485087
 20
-8.256087742719782
 30
0.0
 10
3.21571857484
 20
-8.21617689331119
 30
0.0
 10
3.217884132056114
 20
-8.20400895141827
 30
0.0
 10
3.224206975963241
 20
-8.17692546785028
 30
0.0
 10
3.234384309850566
 20
-8.156060531544586
 30
0.0
 10
3.264471088200978
 20
-8.179855867128278
 30
0.0
 10
3.294861784731383
 20
-8.203153270343277
 30
0.0
 10
3.325509297731236
 20
-8.226043580202758
 30
0.0
 10
3.331502429664489
 20
-8.241378551395636
 30
0.0
 10
3.337586400610916
 20
-8.256432033794553
 30
0.0
 10
3.343935038311893
 20
-8.27048628704817
 30
0.0
 10
3.403801312424812
 20
-8.402765833789891
 30
0.0
 10
3.433795008823409
 20
-8.505948859572124
 30
0.0
 10
3.409715941507116
 20
-8.642112054495904
 30
0.0
 10
3.394421343208954
 20
-8.729103306540896
 30
0.0
 10
3.3859374279629
 20
-8.827686065259103
 30
0.0
 10
3.479500490099366
 20
-8.897231740890717
 30
0.0
 10
3.588897577266708
 20
-8.978606674686874
 30
0.0
 10
3.747644920931366
 20
-9.00101138833995
 30
0.0
 10
3.861522277947766
 20
-9.005492779658313
 30
0.0
 10
3.877534616597203
 20
-9.006149960667452
 30
0.0
 10
3.894204136255778
 20
-9.006508830843057
 30
0.0
 10
3.911351401835689
 20
-9.006508830843057
 30
0.0
 10
4.034858815721567
 20
-9.006508830843057
 30
0.0
 10
4.128379262024644
 20
-8.985297360524045
 30
0.0
 10
4.195823304190132
 20
-8.94178435172742
 30
0.0
 10
4.198371282437188
 20
-8.961653423295665
 30
0.0
 10
4.203291168251379
 20
-8.97991991523591
 30
0.0
 10
4.210879029527628
 20
-8.996536725837418
 30
0.0
 10
4.234157367764509
 20
-9.04763759591029
 30
0.0
 10
4.286750913474188
 20
-9.07799352689244
 30
0.0
 10
4.36723652211637
 20
-9.086736501546518
 30
0.0
 10
4.395129706518177
 20
-9.089789140978095
 30
0.0
 10
4.423437834560541
 20
-9.091384991790395
 30
0.0
 10
4.451747084072242
 20
-9.091384991790395
 30
0.0
 10
4.494452634973658
 20
-9.091384991790395
 30
0.0
 10
4.536186993462265
 20
-9.087742459507583
 30
0.0
 10
4.581737711974964
 20
-9.079450315511652
 30
0.0
 10
4.630653959853606
 20
-9.070673696778622
 30
0.0
 10
4.721685865782461
 20
-9.05433388909392
 30
0.0
 10
4.720471314531765
 20
-8.978947601353733
 30
0.0
 10
4.719813012053323
 20
-8.934368075253905
 30
0.0
 10
4.693446147367304
 20
-8.90009260907214
 30
0.0
 10
4.667948421387935
 20
-8.866926276027026
 30
0.0
 10
4.650775362014143
 20
-8.844585486124002
 30
0.0
 10
4.63453985097421
 20
-8.823491770081288
 30
0.0
 10
4.627670851518572
 20
-8.801116214630008
 30
0.0
 10
4.617678560065543
 20
-8.768539774436068
 30
0.0
 10
4.633637068188607
 20
-8.733327881389812
 30
0.0
 10
4.67509442376041
 20
-8.696484250513631
 30
0.0
 10
4.73032454379174
 20
-8.647360530814694
 30
0.0
 10
4.864305359459897
 20
-8.545920268322918
 30
0.0
 10
4.925849351643949
 20
-8.545920268322918
 30
0.0
 10
4.937505903536517
 20
-8.545920268322918
 30
0.0
 10
4.941738328670501
 20
-8.54973662834701
 30
0.0
 10
4.944096778606044
 20
-8.553032626616377
 30
0.0
 10
4.966161687061567
 20
-8.583804622708419
 30
0.0
 10
4.972752562131094
 20
-8.622902406875342
 30
0.0
 10
4.979725858231529
 20
-8.664255465802311
 30
0.0
 10
4.98433958292715
 20
-8.691523991804628
 30
0.0
 10
4.989092369815794
 20
-8.719727823202257
 30
0.0
 10
4.998737005786203
 20
-8.74574703240559
 30
0.0
 10
5.014209917702863
 20
-8.787481390894197
 30
0.0
 10
5.031070087142257
 20
-8.837299300089137
 30
0.0
 10
5.038771216817679
 20
-8.890343676456995
 30
0.0
 10
5.050705893096421
 20
-8.972564198104532
 30
0.0
 10
5.087306165134684
 20
-9.018948168306258
 30
0.0
 10
5.147531309423273
 20
-9.028279914342267
 30
0.0
 10
5.173966583736499
 20
-9.032373277283229
 30
0.0
 10
5.202414895441287
 20
-9.033692125178659
 30
0.0
 10
5.232318874295983
 20
-9.035044617153105
 30
0.0
 10
5.232318874295983
 20
-9.035044617153105
 30
0.0
 10
5.260835595627912
 20
-9.03643187467587
 30
0.0
 10
5.260835595627912
 20
-9.03643187467587
 30
0.0
 10
5.268364019031329
 20
-9.036814295706748
 30
0.0
 10
5.275614318048634
 20
-9.037021767527042
 30
0.0
 10
5.282622379697326
 20
-9.037021767527042
 30
0.0
 10
5.402865196454146
 20
-9.037021767527042
 30
0.0
 10
5.448971042269824
 20
-8.978011174489179
 30
0.0
 10
5.465726915064419
 20
-8.942832925521875
 30
0.0
 10
5.49004709827999
 20
-8.891732055449001
 30
0.0
 10
5.482691381148612
 20
-8.832443338024966
 30
0.0
 10
5.459101274446605
 20
-8.803544195662093
 30
0.0
 10
5.421703637736814
 20
-8.766527858513875
 30
0.0
 10
5.411156218980771
 20
-8.726389350837568
 30
0.0
 10
5.398979305333542
 20
-8.679902205460316
 30
0.0
 10
5.396342731011858
 20
-8.669909914007318
 30
0.0
 10
5.374625478039021
 20
-8.592478066265986
 30
0.0
 10
5.374625478039021
 20
-8.592478066265986
 30
0.0
 10
5.361026541320771
 20
-8.543700880580431
 30
0.0
 10
5.346942008396117
 20
-8.493293078534256
 30
0.0
 10
5.329422415008944
 20
-8.444585423945213
 30
0.0
 10
5.329422415008944
 20
-8.444585423945213
 30
0.0
 10
5.323455076869636
 20
-8.428696446918659
 30
0.0
 10
5.323455076869636
 20
-8.428696446918659
 30
0.0
 10
5.309647546861788
 20
-8.3928935395518
 30
0.0
 10
5.309612781313532
 20
-8.377942110859104
 30
0.0
 10
5.312007118266602
 20
-8.371696648333621
 30
0.0
 10
5.326646778494236
 20
-8.333604822127826
 30
0.0
 10
5.531017736176018
 20
-8.27317108454964
 30
0.0
 10
5.602275895426989
 20
-8.27317108454964
 30
0.0
 10
5.603906511787545
 20
-8.27317108454964
 30
0.0
 10
5.605259003761991
 20
-8.273205850097895
 30
0.0
 10
5.606369258367886
 20
-8.273275381194471
 30
0.0
 10
5.608450705386655
 20
-8.279902143281525
 30
0.0
 10
5.610427855760592
 20
-8.292772124955517
 30
0.0
 10
5.608589767579678
 20
-8.317022777074575
 30
0.0
 10
5.603386150032885
 20
-8.386198367837473
 30
0.0
 10
5.588017534760993
 20
-8.45648421320633
 30
0.0
 10
5.573169281243824
 20
-8.524481139736126
 30
0.0
 10
5.566265516239899
 20
-8.55612003159621
 30
0.0
 10
5.559361751235975
 20
-8.587655748280765
 30
0.0
 10
5.553429178644859
 20
-8.619155577947762
 30
0.0
 10
5.545345627938527
 20
-8.661930659945753
 30
0.0
 10
5.536950308767135
 20
-8.704637332316475
 30
0.0
 10
5.528554989595677
 20
-8.74734288321789
 30
0.0
 10
5.51988154603811
 20
-8.791436813111376
 30
0.0
 10
5.511209223949847
 20
-8.835530743004798
 30
0.0
 10
5.502882314405661
 20
-8.879693082525492
 30
0.0
 10
5.502882314405661
 20
-8.879693082525492
 30
0.0
 10
5.497922055696723
 20
-8.904914927057359
 30
0.0
 10
5.497922055696723
 20
-8.904914927057359
 30
0.0
 10
5.484461059702255
 20
-8.971453943498636
 30
0.0
 10
5.469231506623385
 20
-9.046874996787016
 30
0.0
 10
5.504062100108068
 20
-9.110465670441549
 30
0.0
 10
5.511174458401591
 20
-9.123370417663795
 30
0.0
 10
5.519674074217816
 20
-9.135200797297706
 30
0.0
 10
5.529387119815462
 20
-9.145573266843037
 30
0.0
 10
5.567999307775982
 20
-9.186926325770072
 30
0.0
 10
5.625068637457467
 20
-9.207915745167892
 30
0.0
 10
5.698962249560817
 20
-9.207915745167892
 30
0.0
 10
5.731989520412906
 20
-9.207915745167892
 30
0.0
 10
5.767791306310398
 20
-9.203856026305944
 30
0.0
 10
5.808416531662415
 20
-9.195565003779318
 30
0.0
 10
5.879743100540592
 20
-9.180925343551749
 30
0.0
 10
5.978164367679808
 20
-9.154351007045436
 30
0.0
 10
6.009179722609704
 20
-9.092530011944547
 30
0.0
 10
6.022639597134867
 20
-9.065642785503803
 30
0.0
 10
6.021876998011657
 20
-9.035808337745683
 30
0.0
 10
6.006854916753081
 20
-9.00389132149949
 30
0.0
 10
5.997730642537429
 20
-8.984429343286699
 30
0.0
 10
5.984859539394133
 20
-8.968436069615315
 30
0.0
 10
5.972370857281779
 20
-8.952963157698655
 30
0.0
 10
5.961373729336957
 20
-8.939294689883894
 30
0.0
 10
5.951000138322259
 20
-8.926388821192342
 30
0.0
 10
5.94392366704636
 20
-8.912060929429833
 30
0.0
 10
5.931851050043899
 20
-8.8876375710388
 30
0.0
 10
5.930601733244916
 20
-8.857837888828872
 30
0.0
 10
5.939829182636094
 20
-8.815444106392517
 30
0.0
 10
5.944548325445788
 20
-8.793934325239974
 30
0.0
 10
5.951243497160113
 20
-8.773015558407906
 30
0.0
 10
5.957903903326183
 20
-8.752060904558343
 30
0.0
 10
5.963281348614319
 20
-8.73516596957066
 30
0.0
 10
5.968658793902454
 20
-8.718305800131235
 30
0.0
 10
5.973099812326038
 20
-8.701167506305763
 30
0.0
 10
5.979031263447848
 20
-8.678374764275286
 30
0.0
 10
5.983160513406307
 20
-8.655235488231428
 30
0.0
 10
5.987288641895524
 20
-8.632061446639312
 30
0.0
 10
5.990653049792162
 20
-8.613154595729503
 30
0.0
 10
6.011295935176664
 20
-8.532217034959837
 30
0.0
 10
6.045883169823493
 20
-8.624463492139386
 30
0.0
 10
6.050983612194823
 20
-8.638066914734855
 30
0.0
 10
6.056221995289872
 20
-8.65138436265908
 30
0.0
 10
6.06173738130179
 20
-8.663596041854564
 30
0.0
 10
6.096499565159267
 20
-8.74040435266571
 30
0.0
 10
6.113914861901608
 20
-8.800317728489238
 30
0.0
 10
6.099933504152416
 20
-8.87938131406043
 30
0.0
 10
6.091052588774555
 20
-8.929893412751372
 30
0.0
 10
6.086125974144568
 20
-8.987135448704896
 30
0.0
 10
6.140454432859666
 20
-9.027516193749753
 30
0.0
 10
6.203975575417622
 20
-9.07476705971952
 30
0.0
 10
6.29615250150066
 20
-9.087777225055902
 30
0.0
 10
6.362275452832044
 20
-9.090379033829267
 30
0.0
 10
6.371572433319734
 20
-9.090760333390904
 30
0.0
 10
6.38125183483843
 20
-9.090968926680503
 30
0.0
 10
6.391208239273868
 20
-9.090968926680503
 30
0.0
 10
6.473428760921404
 20
-9.090968926680503
 30
0.0
 10
6.532787009441952
 20
-9.074801825267775
 30
0.0
 10
6.572648514201454
 20
-9.041462785950625
 30
0.0
 10
6.602615295336832
 20
-9.016437198546067
 30
0.0
 10
6.611299953587384
 20
-8.989106991732308
 30
0.0
 10
6.609110845515998
 20
-8.962270231410088
 30
0.0
 10
7.402156738751195
 20
-8.804258571605454
 30
0.0
 10
8.131246359340427
 20
-8.416406264872162
 30
0.0
 10
8.715986059124084
 20
-7.831666565088567
 30
0.0
 10
9.496833730795325
 20
-7.050818893417262
 30
0.0
 10
9.92686786226746
 20
-6.012643362301702
 30
0.0
 10
9.92686786226746
 20
-4.908363944832876
 30
0.0
  0
SPLINE
  5
42
330
1F
100
AcDbEntity
  8
Layer 1
370
     0
100
AcDbSpline
210
0.0
220
0.0
230
1.0
 70
    11
 71
     3
 72
   308
 73
   304
 74
     0
 42
0.0000000001
 43
0.0000000001
 12
1.0
 22
0.0
 32
0.0
 13
1.0
 23
0.0
 33
0.0
 40
0.0
 40
0.0
 40
0.0
 40
0.0
 40
1.0
 40
1.0
 40
1.0
 40
2.0
 40
2.0
 40
2.0
 40
3.0
 40
3.0
 40
3.0
 40
4.0
 40
4.0
 40
4.0
 40
5.0
 40
5.0
 40
5.0
 40
6.0
 40
6.0
 40
6.0
 40
7.0
 40
7.0
 40
7.0
 40
8.0
 40
8.0
 40
8.0
 40
9.0
 40
9.0
 40
9.0
 40
10.0
 40
10.0
 40
10.0
 40
11.0
 40
11.0
 40
11.0
 40
12.0
 40
12.0
 40
12.0
 40
13.0
 40
13.0
 40
13.0
 40
14.0
 40
14.0
 40
14.0
 40
15.0
 40
15.0
 40
15.0
 40
16.0
 40
16.0
 40
16.0
 40
17.0
 40
17.0
 40
17.0
 40
18.0
 40
18.0
 40
18.0
 40
19.0
 40
19.0
 40
19.0
 40
20.0
 40
20.0
 40
20.0
 40
21.0
 40
21.0
 40
21.0
 40
22.0
 40
22.0
 40
22.0
 40
23.0
 40
23.0
 40
23.0
 40
24.0
 40
24.0
 40
24.0
 40
25.0
 40
25.0
 40
25.0
 40
26.0
 40
26.0
 40
26.0
 40
27.0
 40
27.0
 40
27.0
 40
28.0
 40
28.0
 40
28.0
 40
29.0
 40
29.0
 40
29.0
 40
30.0
 40
30.0
 40
30.0
 40
31.0
 40
31.0
 40
31.0
 40
32.0
 40
32.0
 40
32.0
 40
33.0
 40
33.0
 40
33.0
 40
34.0
 40
34.0
 40
34.0
 40
35.0
 40
35.0
 40
35.0
 40
36.0
 40
36.0
 40
36.0
 40
37.0
 40
37.0
 40
37.0
 40
38.0
 40
38.0
 40
38.0
 40
39.0
 40
39.0
 40
39.0
 40
40.0
 40
40.0
 40
40.0
 40
41.0
 40
41.0
 40
41.0
 40
42.0
 40
42.0
 40
42.0
 40
43.0
 40
43.0
 40
43.0
 40
44.0
 40
44.0
 40
44.0
 40
45.0
 40
45.0
 40
45.0
 40
46.0
 40
46.0
 40
46.0
 40
47.0
 40
47.0
 40
47.0
 40
48.0
 40
48.0
 40
48.0
 40
49.0
 40
49.0
 40
49.0
 40
50.0
 40
50.0
 40
50.0
 40
51.0
 40
51.0
 40
51.0
 40
52.0
 40
52.0
 40
52.0
 40
53.0
 40
53.0
 40
53.0
 40
54.0
 40
54.0
 40
54.0
 40
55.0
 40
55.0
 40
55.0
 40
56.0
 40
56.0
 40
56.0
 40
57.0
 40
57.0
 40
57.0
 40
58.0
 40
58.0
 40
58.0
 40
59.0
 40
59.0
 40
59.0
 40
60.0
 40
60.0
 40
60.0
 40
61.0
 40
61.0
 40
61.0
 40
62.0
 40
62.0
 40
62.0
 40
63.0
 40
63.0
 40
63.0
 40
64.0
 40
64.0
 40
64.0
 40
65.0
 40
65.0
 40
65.0
 40
66.0
 40
66.0
 40
66.0
 40
67.0
 40
67.0
 40
67.0
 40
68.0
 40
68.0
 40
68.0
 40
69.0
 40
69.0
 40
69.0
 40
70.0
 40
70.0
 40
70.0
 40
71.0
 40
71.0
 40
71.0
 40
72.0
 40
72.0
 40
72.0
 40
73.0
 40
73.0
 40
73.0
 40
74.0
 40
74.0
 40
74.0
 40
75.0
 40
75.0
 40
75.0
 40
76.0
 40
76.0
 40
76.0
 40
77.0
 40
77.0
 40
77.0
 40
78.0
 40
78.0
 40
78.0
 40
79.0
 40
79.0
 40
79.0
 40
80.0
 40
80.0
 40
80.0
 40
81.0
 40
81.0
 40
81.0
 40
82.0
 40
82.0
 40
82.0
 40
83.0
 40
83.0
 40
83.0
 40
84.0
 40
84.0
 40
84.0
 40
85.0
 40
85.0
 40
85.0
 40
86.0
 40
86.0
 40
86.0
 40
87.0
 40
87.0
 40
87.0
 40
88.0
 40
88.0
 40
88.0
 40
89.0
 40
89.0
 40
89.0
 40
90.0
 40
90.0
 40
90.0
 40
91.0
 40
91.0
 40
91.0
 40
92.0
 40
92.0
 40
92.0
 40
93.0
 40
93.0
 40
93.0
 40
94.0
 40
94.0
 40
94.0
 40
95.0
 40
95.0
 40
95.0
 40
96.0
 40
96.0
 40
96.0
 40
97.0
 40
97.0
 40
97.0
 40
98.0
 40
98.0
 40
98.0
 40
99.0
 40
99.0
 40
99.0
 40
100.0
 40
100.0
 40
100.0
 40
101.0
 40
101.0
 40
101.0
 40
101.0
 10
6.525339331828095
 20
-8.790629355216169
 30
0.0
 10
6.511617033486961
 20
-8.757214055986678
 30
0.0
 10
6.501665114928679
 20
-8.721478436777783
 30
0.0
 10
6.492023843366217
 20
-8.686493080529873
 30
0.0
 10
6.484773544348911
 20
-8.660162102861415
 30
0.0
 10
6.477556889410621
 20
-8.63396906591674
 30
0.0
 10
6.468849801774103
 20
-8.608678811757601
 30
0.0
 10
6.449283526916481
 20
-8.55192237201048
 30
0.0
 10
6.426767787802873
 20
-8.495548353294303
 30
0.0
 10
6.404183639061931
 20
-8.43906891646399
 30
0.0
 10
6.359188047852212
 20
-8.326389288658842
 30
0.0
 10
6.312631371378449
 20
-8.209858535281281
 30
0.0
 10
6.291225886870673
 20
-8.090725973130294
 30
0.0
 10
6.282656739957872
 20
-8.042989510954122
 30
0.0
 10
6.280853417325278
 20
-7.993275898403951
 30
0.0
 10
6.279118504319891
 20
-7.945192902214399
 30
0.0
 10
6.277869187520972
 20
-7.910430718356922
 30
0.0
 10
6.276586226643039
 20
-7.875704421517071
 30
0.0
 10
6.272978459908545
 20
-7.841081299852681
 30
0.0
 10
6.270549357407155
 20
-7.817594368326201
 30
0.0
 10
6.265171912119019
 20
-7.794524623378854
 30
0.0
 10
6.259759701282627
 20
-7.771488522510523
 30
0.0
 10
6.253029764020046
 20
-7.742660032713466
 30
0.0
 10
6.246646360770781
 20
-7.715461037807661
 30
0.0
 10
6.246230295660889
 20
-7.687708037068246
 30
0.0
 10
6.245779465002741
 20
-7.65135000239847
 30
0.0
 10
6.259552229462334
 20
-7.614542258539849
 30
0.0
 10
6.287236820574543
 20
-7.578358051611416
 30
0.0
 10
6.339691304091166
 20
-7.50977235369969
 30
0.0
 10
6.422049766462421
 20
-7.471506699752553
 30
0.0
 10
6.487965245973576
 20
-7.445834024562536
 30
0.0
 10
6.584998134120721
 20
-7.408020322742852
 30
0.0
 10
6.701946074077479
 20
-7.314317076944025
 30
0.0
 10
6.835510824635743
 20
-7.167360861487805
 30
0.0
 10
6.835510824635743
 20
-7.167360861487805
 30
0.0
 10
6.84463397738209
 20
-7.157404457052367
 30
0.0
 10
6.84463397738209
 20
-7.157404457052367
 30
0.0
 10
6.895007013880009
 20
-7.104949973535744
 30
0.0
 10
6.947080197834995
 20
-7.050691045917222
 30
0.0
 10
6.978927682984677
 20
-6.980579028289707
 30
0.0
 10
6.978927682984677
 20
-6.980579028289707
 30
0.0
 10
6.983437111035466
 20
-6.968644352011028
 30
0.0
 10
6.983437111035466
 20
-6.968644352011028
 30
0.0
 10
6.983437111035466
 20
-6.968644352011028
 30
0.0
 10
6.9774708943654
 20
-6.95938213707153
 30
0.0
 10
6.9774708943654
 20
-6.95938213707153
 30
0.0
 10
6.970393301620197
 20
-6.948383887657403
 30
0.0
 10
6.957140898915264
 20
-6.946302440638699
 30
0.0
 10
6.935145521556316
 20
-6.946302440638699
 30
0.0
 10
6.906941690158688
 20
-6.946302440638699
 30
0.0
 10
6.861911333400713
 20
-6.950500100224364
 30
0.0
 10
6.825935719761878
 20
-6.954490287989798
 30
0.0
 10
6.877835075975522
 20
-6.90342306199594
 30
0.0
 10
6.951589625885785
 20
-6.829043853686121
 30
0.0
 10
6.96969911212413
 20
-6.801463559218743
 30
0.0
 10
7.046542188483531
 20
-6.684447209634779
 30
0.0
 10
7.064651674721939
 20
-6.519485804585046
 30
0.0
 10
7.016915212545705
 20
-6.370900094237511
 30
0.0
 10
6.983090577022086
 20
-6.265539175076874
 30
0.0
 10
6.912665669460205
 20
-6.185505518562114
 30
0.0
 10
6.828537528535243
 20
-6.156814969488841
 30
0.0
 10
6.804946300363995
 20
-6.148800949879021
 30
0.0
 10
6.780141642411325
 20
-6.144707586938123
 30
0.0
 10
6.754781857155675
 20
-6.144707586938123
 30
0.0
 10
6.674400545158292
 20
-6.144707586938123
 30
0.0
 10
6.593949702064399
 20
-6.186302883233644
 30
0.0
 10
6.544755329799647
 20
-6.253224320705799
 30
0.0
 10
6.495424138280416
 20
-6.320353229998313
 30
0.0
 10
6.476343459629199
 20
-6.422070495406895
 30
0.0
 10
6.535284521570549
 20
-6.486632361474236
 30
0.0
 10
6.548815048661592
 20
-6.501445849443213
 30
0.0
 10
6.575979278019141
 20
-6.526320038492395
 30
0.0
 10
6.605987553518604
 20
-6.526320038492395
 30
0.0
 10
6.619344252868305
 20
-6.526320038492395
 30
0.0
 10
6.643801255338289
 20
-6.520977358752515
 30
0.0
 10
6.657436079074099
 20
-6.485348279127061
 30
0.0
 10
6.660523484053932
 20
-6.477335380986545
 30
0.0
 10
6.663368651665215
 20
-6.468938940345784
 30
0.0
 10
6.666247463355449
 20
-6.460405680450608
 30
0.0
 10
6.676898057286889
 20
-6.428974260410819
 30
0.0
 10
6.687929950780031
 20
-6.39650211686171
 30
0.0
 10
6.713117029763643
 20
-6.37995371588741
 30
0.0
 10
6.721338521193693
 20
-6.374542626520324
 30
0.0
 10
6.730705032777959
 20
-6.371801755553808
 30
0.0
 10
6.740904796051314
 20
-6.371801755553808
 30
0.0
 10
6.764356962029539
 20
-6.371801755553808
 30
0.0
 10
6.789231151078721
 20
-6.386684774619297
 30
0.0
 10
6.80144283027427
 20
-6.408019606561256
 30
0.0
 10
6.851156442824442
 20
-6.495097211742205
 30
0.0
 10
6.777158534076259
 20
-6.630396875305856
 30
0.0
 10
6.706351205483437
 20
-6.681671573120072
 30
0.0
 10
6.638806231081094
 20
-6.730621465077665
 30
0.0
 10
6.54624800543642
 20
-6.75542724449964
 30
0.0
 10
6.431278337322968
 20
-6.75542724449964
 30
0.0
 10
6.369976582507435
 20
-6.75542724449964
 30
0.0
 10
6.301321353499197
 20
-6.748558245043972
 30
0.0
 10
6.221321341063452
 20
-6.734403059553501
 30
0.0
 10
6.221321341063452
 20
-6.734403059553501
 30
0.0
 10
6.205710488423009
 20
-6.731593778959779
 30
0.0
 10
6.205710488423009
 20
-6.731593778959779
 30
0.0
 10
6.171191663403387
 20
-6.725348316434297
 30
0.0
 10
6.132024348139952
 20
-6.718237079610079
 30
0.0
 10
6.093966166013108
 20
-6.718237079610079
 30
0.0
 10
6.053446358775164
 20
-6.718237079610079
 30
0.0
 10
6.019656488799865
 20
-6.726216333671643
 30
0.0
 10
5.990722580888673
 20
-6.7425909069046
 30
0.0
 10
5.95162479672175
 20
-6.764689459439074
 30
0.0
 10
5.920783269533197
 20
-6.789979713598213
 30
0.0
 10
5.890948821775012
 20
-6.814437837537502
 30
0.0
 10
5.853377357323878
 20
-6.845279364726055
 30
0.0
 10
5.817852574343192
 20
-6.874385978909285
 30
0.0
 10
5.7670982382837
 20
-6.897074424294932
 30
0.0
 10
5.677384058781003
 20
-6.937178166422983
 30
0.0
 10
5.579899218506405
 20
-6.949737501101154
 30
0.0
 10
5.493862336834776
 20
-6.960804160142486
 30
0.0
 10
5.493862336834776
 20
-6.960804160142486
 30
0.0
 10
5.459830229490864
 20
-6.96524517856607
 30
0.0
 10
5.459830229490864
 20
-6.96524517856607
 30
0.0
 10
5.411815642928518
 20
-6.971662225894285
 30
0.0
 10
5.321616988688723
 20
-6.999172989265151
 30
0.0
 10
5.280575698226877
 20
-7.037751533146719
 30
0.0
 10
5.260245702776741
 20
-7.056797446249616
 30
0.0
 10
5.25028929834124
 20
-7.076814551765387
 30
0.0
 10
5.241477914059954
 20
-7.094438441797327
 30
0.0
 10
5.230688257935363
 20
-7.116086163673653
 30
0.0
 10
5.222153876570882
 20
-7.133154926402613
 30
0.0
 10
5.19641279175366
 20
-7.147030866037668
 30
0.0
 10
5.160228584825226
 20
-7.166528731268083
 30
0.0
 10
5.11134710249484
 20
-7.170829566029274
 30
0.0
 10
5.064062592446058
 20
-7.174993581535988
 30
0.0
 10
5.041130788222525
 20
-7.177040263006501
 30
0.0
 10
5.01875411130194
 20
-7.179017413380373
 30
0.0
 10
4.99832094067631
 20
-7.182590414566611
 30
0.0
 10
4.736777478137516
 20
-7.228036836434542
 30
0.0
 10
4.55578803386811
 20
-7.456727977331895
 30
0.0
 10
4.442414216566926
 20
-7.624810431440412
 30
0.0
 10
4.358077482352398
 20
-7.749840800634196
 30
0.0
 10
4.335112034049883
 20
-7.864498700282651
 30
0.0
 10
4.372197902294612
 20
-7.975305474358693
 30
0.0
 10
4.385485070547769
 20
-8.014958385828532
 30
0.0
 10
4.425832171513643
 20
-8.13558250214699
 30
0.0
 10
4.5133594858835
 20
-8.13558250214699
 30
0.0
 10
4.519638592487965
 20
-8.13558250214699
 30
0.0
 10
4.526056761285453
 20
-8.134923078199241
 30
0.0
 10
4.531573268766643
 20
-8.133779179514395
 30
0.0
 10
4.545589392064091
 20
-8.19084738772664
 30
0.0
 10
4.498268994997749
 20
-8.255374488245725
 30
0.0
 10
4.461738254055966
 20
-8.30522716298892
 30
0.0
 10
4.461738254055966
 20
-8.30522716298892
 30
0.0
 10
4.446404404332362
 20
-8.326319757562265
 30
0.0
 10
4.446404404332362
 20
-8.326319757562265
 30
0.0
 10
4.364947603277339
 20
-8.439624043766969
 30
0.0
 10
4.304305272409585
 20
-8.548695904837626
 30
0.0
 10
4.260905532012166
 20
-8.659711272203266
 30
0.0
 10
4.260905532012166
 20
-8.659711272203266
 30
0.0
 10
4.25455689431119
 20
-8.675877252146625
 30
0.0
 10
4.25455689431119
 20
-8.675877252146625
 30
0.0
 10
4.253834668082695
 20
-8.67771534032754
 30
0.0
 10
4.253023845779604
 20
-8.679822581140124
 30
0.0
 10
4.252285918980939
 20
-8.68170216368506
 30
0.0
 10
4.238635394674958
 20
-8.656395087486477
 30
0.0
 10
4.222987533547649
 20
-8.632744421442332
 30
0.0
 10
4.209129537421375
 20
-8.61182116873311
 30
0.0
 10
4.199869565420486
 20
-8.597839810983919
 30
0.0
 10
4.190847344910992
 20
-8.584157885537564
 30
0.0
 10
4.18278173771344
 20
-8.570894268139712
 30
0.0
 10
4.135401902774266
 20
-8.49298355300774
 30
0.0
 10
4.109770721948302
 20
-8.399898236792641
 30
0.0
 10
4.084976157219311
 20
-8.309919390535427
 30
0.0
 10
4.072488596576261
 20
-8.264571657965803
 30
0.0
 10
4.060061595275349
 20
-8.219462798356878
 30
0.0
 10
4.045065307810719
 20
-8.175907173726928
 30
0.0
 10
4.011367398317899
 20
-8.078161031105664
 30
0.0
 10
3.972592597309053
 20
-7.981072069493536
 30
0.0
 10
3.9336966776159
 20
-7.883804794262846
 30
0.0
 10
3.856205392001767
 20
-7.689746868253625
 30
0.0
 10
3.776024823008882
 20
-7.489056572810762
 30
0.0
 10
3.739161005685312
 20
-7.283886007518841
 30
0.0
 10
3.724403591181349
 20
-7.201674457625742
 30
0.0
 10
3.721297121223432
 20
-7.116057005471856
 30
0.0
 10
3.718309527011211
 20
-7.033247712442389
 30
0.0
 10
3.716158548895963
 20
-6.973381438329469
 30
0.0
 10
3.71394813290785
 20
-6.913574602089382
 30
0.0
 10
3.707734071522742
 20
-6.853947200937099
 30
0.0
 10
3.703552112507216
 20
-6.813498046265035
 30
0.0
 10
3.694291019037055
 20
-6.773766631944246
 30
0.0
 10
3.684970487694029
 20
-6.73409465549629
 30
0.0
 10
3.673380102490089
 20
-6.68444496669617
 30
0.0
 10
3.66238633895315
 20
-6.637603437020467
 30
0.0
 10
3.661669720071179
 20
-6.589806415502095
 30
0.0
 10
3.66089254184704
 20
-6.527191420137656
 30
0.0
 10
3.684611617518391
 20
-6.463800368018347
 30
0.0
 10
3.732289763291066
 20
-6.401483683487311
 30
0.0
 10
3.822627479723917
 20
-6.28336380811328
 30
0.0
 10
3.964466430769332
 20
-6.217462907703087
 30
0.0
 10
4.077986039079399
 20
-6.17325122353324
 30
0.0
 10
4.245097300775107
 20
-6.10812637987785
 30
0.0
 10
4.446504215099941
 20
-5.946750312176643
 30
0.0
 10
4.676529904462959
 20
-5.693662728151379
 30
0.0
 10
4.676529904462959
 20
-5.693662728151379
 30
0.0
 10
4.692243932278897
 20
-5.676515462571468
 30
0.0
 10
4.692243932278897
 20
-5.676515462571468
 30
0.0
 10
4.778996311363223
 20
-5.58617774613865
 30
0.0
 10
4.868675725317632
 20
-5.49273355974788
 30
0.0
 10
4.923523424318053
 20
-5.371984960337234
 30
0.0
 10
4.923523424318053
 20
-5.371984960337234
 30
0.0
 10
4.931290720682136
 20
-5.351431792496602
 30
0.0
 10
4.931290720682136
 20
-5.351431792496602
 30
0.0
 10
4.931290720682136
 20
-5.351431792496602
 30
0.0
 10
4.921014697496473
 20
-5.335480013189301
 30
0.0
 10
4.921014697496473
 20
-5.335480013189301
 30
0.0
 10
4.908826569156227
 20
-5.316539518200476
 30
0.0
 10
4.886002425985377
 20
-5.312955302321255
 30
0.0
 10
4.848123678946336
 20
-5.312955302321255
 30
0.0
 10
4.799549479203856
 20
-5.312955302321255
 30
0.0
 10
4.721997634247554
 20
-5.320184293421898
 30
0.0
 10
4.660039819892187
 20
-5.327055535816112
 30
0.0
 10
4.749420923013096
 20
-5.239107670459208
 30
0.0
 10
4.876443021681683
 20
-5.111010082732949
 30
0.0
 10
4.907631082883618
 20
-5.063511372048109
 30
0.0
 10
5.039970067498203
 20
-4.86198558197761
 30
0.0
 10
5.071158128700073
 20
-4.577889371838278
 30
0.0
 10
4.988946578806943
 20
-4.321992507219356
 30
0.0
 10
4.930692977545831
 20
-4.140542139068123
 30
0.0
 10
4.809407194341017
 20
-4.002705711950432
 30
0.0
 10
4.66452121121055
 20
-3.953294896110979
 30
0.0
 10
4.623892621450619
 20
-3.939492973449622
 30
0.0
 10
4.58117361291761
 20
-3.932443417436846
 30
0.0
 10
4.537499112541963
 20
-3.932443417436846
 30
0.0
 10
4.399064942287934
 20
-3.932443417436846
 30
0.0
 10
4.26051189628824
 20
-4.00407951184154
 30
0.0
 10
4.175791619573497
 20
-4.119331790218353
 30
0.0
 10
4.090831348428781
 20
-4.234941817301531
 30
0.0
 10
4.057970055032934
 20
-4.410119807664127
 30
0.0
 10
4.159479848621254
 20
-4.52130900277108
 30
0.0
 10
4.18278173771344
 20
-4.546820186382042
 30
0.0
 10
4.22956382951631
 20
-4.589659192130052
 30
0.0
 10
4.281244499216676
 20
-4.589659192130052
 30
0.0
 10
4.304246956006057
 20
-4.589659192130052
 30
0.0
 10
4.346368221402761
 20
-4.580457536532724
 30
0.0
 10
4.36984954558275
 20
-4.519097465313695
 30
0.0
 10
4.375166431528748
 20
-4.505296664121643
 30
0.0
 10
4.380066130895581
 20
-4.490837560451148
 30
0.0
 10
4.385025268135246
 20
-4.476139583820018
 30
0.0
 10
4.403366898518462
 20
-4.422009625170872
 30
0.0
 10
4.42236683138012
 20
-4.366086437112811
 30
0.0
 10
4.465743020922267
 20
-4.337586537820323
 30
0.0
 10
4.479902692289957
 20
-4.328266006477297
 30
0.0
 10
4.496035028154396
 20
-4.323546863667604
 30
0.0
 10
4.513600601782777
 20
-4.323546863667604
 30
0.0
 10
4.553989197112703
 20
-4.323546863667604
 30
0.0
 10
4.596828202860714
 20
-4.349178044493568
 30
0.0
 10
4.61785911662265
 20
-4.385921864602136
 30
0.0
 10
4.703475447307198
 20
-4.53588698218724
 30
0.0
 10
4.576036162059446
 20
-4.768900265762478
 30
0.0
 10
4.45409207637619
 20
-4.857205879825747
 30
0.0
 10
4.337765430411042
 20
-4.941508969961324
 30
0.0
 10
4.178360905737247
 20
-4.984227978494334
 30
0.0
 10
3.980358772203799
 20
-4.984227978494334
 30
0.0
 10
3.87478589534565
 20
-4.984227978494334
 30
0.0
 10
3.75654714422589
 20
-4.972397598860423
 30
0.0
 10
3.618771276450336
 20
-4.948021342179933
 30
0.0
 10
3.618771276450336
 20
-4.948021342179933
 30
0.0
 10
3.591885171478929
 20
-4.943181080685965
 30
0.0
 10
3.591885171478929
 20
-4.943181080685965
 30
0.0
 10
3.532436083945175
 20
-4.932427311578966
 30
0.0
 10
3.464981948556039
 20
-4.920178623896584
 30
0.0
 10
3.399439918321452
 20
-4.920178623896584
 30
0.0
 10
3.329655369729201
 20
-4.920178623896584
 30
0.0
 10
3.271462327810227
 20
-4.933921108685076
 30
0.0
 10
3.221633203922304
 20
-4.96212157567479
 30
0.0
 10
3.154297944278802
 20
-5.000179757801634
 30
0.0
 10
3.101184036814463
 20
-5.043735382431616
 30
0.0
 10
3.049801677947565
 20
-5.085856647828352
 30
0.0
 10
2.985095142340677
 20
-5.138971676762027
 30
0.0
 10
2.923914506209451
 20
-5.189100232952724
 30
0.0
 10
2.836504946115987
 20
-5.228174466264374
 30
0.0
 10
2.681998999339688
 20
-5.29724127450535
 30
0.0
 10
2.514110559419839
 20
-5.318869931403558
 30
0.0
 10
2.365937549774347
 20
-5.337929302138049
 30
0.0
 10
2.365937549774347
 20
-5.337929302138049
 30
0.0
 10
2.30732619980687
 20
-5.345576601287131
 30
0.0
 10
2.30732619980687
 20
-5.345576601287131
 30
0.0
 10
2.224636903992372
 20
-5.356629802696935
 30
0.0
 10
2.069294341119133
 20
-5.404009637636109
 30
0.0
 10
1.998613738557077
 20
-5.470447721840469
 30
0.0
 10
1.963602588515287
 20
-5.503248455894211
 30
0.0
 10
1.946455322935376
 20
-5.537722422141835
 30
0.0
 10
1.931279600382912
 20
-5.568073867246764
 30
0.0
 10
1.922934747329913
 20
-5.584817403879071
 30
0.0
 10
1.915249318224694
 20
-5.59989219419465
 30
0.0
 10
1.905435340390162
 20
-5.613670566000703
 30
0.0
 10
1.864004900081546
 20
-5.384740552142715
 30
0.0
 10
1.842240545398165
 20
-5.149053685758958
 30
0.0
 10
1.842240545398165
 20
-4.908363944832876
 30
0.0
 10
1.842240545398165
 20
-2.730084780964966
 30
0.0
 10
3.614395303246077
 20
-0.9579210513626157
 30
0.0
 10
5.792683438868393
 20
-0.9579210513626157
 30
0.0
 10
7.970971574490675
 20
-0.9579210513626157
 30
0.0
 10
9.743126332338651
 20
-2.730084780964966
 30
0.0
 10
9.743126332338651
 20
-4.908363944832876
 30
0.0
 10
9.743126332338651
 20
-6.836373777023617
 30
0.0
 10
8.354784348809444
 20
-8.446150995086413
 30
0.0
 10
6.525339331828095
 20
-8.790629355216169
 30
0.0
  0
HATCH
  5
43
330
1F
100
AcDbEntity
  8
Layer 1
 62
   255
100
AcDbHatch
 10
0.0
 20
0.0
 30
0.0
210
0.0
220
0.0
230
1.0
  2
SOLID
 70
     1
 71
     0
 91
        2
 92
        1
 93
        1
 72
     4
 94
        3
 73
     0
 74
     1
 95
      371
 96
      367
 40
0.0
 40
0.0
 40
0.0
 40
0.0
 40
1.0
 40
1.0
 40
1.0
 40
2.0
 40
2.0
 40
2.0
 40
3.0
 40
3.0
 40
3.0
 40
4.0
 40
4.0
 40
4.0
 40
5.0
 40
5.0
 40
5.0
 40
6.0
 40
6.0
 40
6.0
 40
7.0
 40
7.0
 40
7.0
 40
8.0
 40
8.0
 40
8.0
 40
9.0
 40
9.0
 40
9.0
 40
10.0
 40
10.0
 40
10.0
 40
11.0
 40
11.0
 40
11.0
 40
12.0
 40
12.0
 40
12.0
 40
13.0
 40
13.0
 40
13.0
 40
14.0
 40
14.0
 40
14.0
 40
15.0
 40
15.0
 40
15.0
 40
16.0
 40
16.0
 40
16.0
 40
17.0
 40
17.0
 40
17.0
 40
18.0
 40
18.0
 40
18.0
 40
19.0
 40
19.0
 40
19.0
 40
20.0
 40
20.0
 40
20.0
 40
21.0
 40
21.0
 40
21.0
 40
22.0
 40
22.0
 40
22.0
 40
23.0
 40
23.0
 40
23.0
 40
24.0
 40
24.0
 40
24.0
 40
25.0
 40
25.0
 40
25.0
 40
26.0
 40
26.0
 40
26.0
 40
27.0
 40
27.0
 40
27.0
 40
28.0
 40
28.0
 40
28.0
 40
29.0
 40
29.0
 40
29.0
 40
30.0
 40
30.0
 40
30.0
 40
31.0
 40
31.0
 40
31.0
 40
32.0
 40
32.0
 40
32.0
 40
33.0
 40
33.0
 40
33.0
 40
34.0
 40
34.0
 40
34.0
 40
35.0
 40
35.0
 40
35.0
 40
36.0
 40
36.0
 40
36.0
 40
37.0
 40
37.0
 40
37.0
 40
38.0
 40
38.0
 40
38.0
 40
39.0
 40
39.0
 40
39.0
 40
40.0
 40
40.0
 40
40.0
 40
41.0
 40
41.0
 40
41.0
 40
42.0
 40
42.0
 40
42.0
 40
43.0
 40
43.0
 40
43.0
 40
44.0
 40
44.0
 40
44.0
 40
45.0
 40
45.0
 40
45.0
 40
46.0
 40
46.0
 40
46.0
 40
47.0
 40
47.0
 40
47.0
 40
48.0
 40
48.0
 40
48.0
 40
49.0
 40
49.0
 40
49.0
 40
50.0
 40
50.0
 40
50.0
 40
51.0
 40
51.0
 40
51.0
 40
52.0
 40
52.0
 40
52.0
 40
53.0
 40
53.0
 40
53.0
 40
54.0
 40
54.0
 40
54.0
 40
55.0
 40
55.0
 40
55.0
 40
56.0
 40
56.0
 40
56.0
 40
57.0
 40
57.0
 40
57.0
 40
58.0
 40
58.0
 40
58.0
 40
59.0
 40
59.0
 40
59.0
 40
60.0
 40
60.0
 40
60.0
 40
61.0
 40
61.0
 40
61.0
 40
62.0
 40
62.0
 40
62.0
 40
63.0
 40
63.0
 40
63.0
 40
64.0
 40
64.0
 40
64.0
 40
65.0
 40
65.0
 40
65.0
 40
66.0
 40
66.0
 40
66.0
 40
67.0
 40
67.0
 40
67.0
 40
68.0
 40
68.0
 40
68.0
 40
69.0
 40
69.0
 40
69.0
 40
70.0
 40
70.0
 40
70.0
 40
71.0
 40
71.0
 40
71.0
 40
72.0
 40
72.0
 40
72.0
 40
73.0
 40
73.0
 40
73.0
 40
74.0
 40
74.0
 40
74.0
 40
75.0
 40
75.0
 40
75.0
 40
76.0
 40
76.0
 40
76.0
 40
77.0
 40
77.0
 40
77.0
 40
78.0
 40
78.0
 40
78.0
 40
79.0
 40
79.0
 40
79.0
 40
80.0
 40
80.0
 40
80.0
 40
81.0
 40
81.0
 40
81.0
 40
82.0
 40
82.0
 40
82.0
 40
83.0
 40
83.0
 40
83.0
 40
84.0
 40
84.0
 40
84.0
 40
85.0
 40
85.0
 40
85.0
 40
86.0
 40
86.0
 40
86.0
 40
87.0
 40
87.0
 40
87.0
 40
88.0
 40
88.0
 40
88.0
 40
89.0
 40
89.0
 40
89.0
 40
90.0
 40
90.0
 40
90.0
 40
91.0
 40
91.0
 40
91.0
 40
92.0
 40
92.0
 40
92.0
 40
93.0
 40
93.0
 40
93.0
 40
94.0
 40
94.0
 40
94.0
 40
95.0
 40
95.0
 40
95.0
 40
96.0
 40
96.0
 40
96.0
 40
97.0
 40
97.0
 40
97.0
 40
98.0
 40
98.0
 40
98.0
 40
99.0
 40
99.0
 40
99.0
 40
100.0
 40
100.0
 40
100.0
 40
101.0
 40
101.0
 40
101.0
 40
102.0
 40
102.0
 40
102.0
 40
103.0
 40
103.0
 40
103.0
 40
104.0
 40
104.0
 40
104.0
 40
105.0
 40
105.0
 40
105.0
 40
106.0
 40
106.0
 40
106.0
 40
107.0
 40
107.0
 40
107.0
 40
108.0
 40
108.0
 40
108.0
 40
109.0
 40
109.0
 40
109.0
 40
110.0
 40
110.0
 40
110.0
 40
111.0
 40
111.0
 40
111.0
 40
112.0
 40
112.0
 40
112.0
 40
113.0
 40
113.0
 40
113.0
 40
114.0
 40
114.0
 40
114.0
 40
115.0
 40
115.0
 40
115.0
 40
116.0
 40
116.0
 40
116.0
 40
117.0
 40
117.0
 40
117.0
 40
118.0
 40
118.0
 40
118.0
 40
119.0
 40
119.0
 40
119.0
 40
120.0
 40
120.0
 40
120.0
 40
121.0
 40
121.0
 40
121.0
 40
122.0
 40
122.0
 40
122.0
 40
122.0
 10
9.92686786226746
 20
-4.908363944832876
 10
9.92686786226746
 20
-3.804084527364016
 10
9.496833730795325
 20
-2.765900024494051
 10
8.715986059124084
 20
-1.985052352822809
 10
7.935138387452843
 20
-1.20421365290591
 10
6.896962856337283
 20
-0.7741795214337747
 10
5.792683438868393
 20
-0.7741795214337747
 10
4.688404021399533
 20
-0.7741795214337747
 10
3.650210546775194
 20
-1.20421365290591
 10
2.86936287510392
 20
-1.985052352822809
 10
2.088533146941459
 20
-2.765891052739677
 10
1.658499015469292
 20
-3.804084527364016
 10
1.658499015469292
 20
-4.908363944832876
 10
1.658499015469292
 20
-5.17529382441418
 10
1.683859922194215
 20
-5.438297439980165
 10
1.732994856586134
 20
-5.69480214095907
 10
1.698086881719838
 20
-5.700292854646412
 10
1.661689595624619
 20
-5.703640440503543
 10
1.625734168433174
 20
-5.706806348334261
 10
1.586240505603748
 20
-5.710332247809954
 10
1.547704577555537
 20
-5.713737028601372
 10
1.512512870956639
 20
-5.719891652113616
 10
1.062081455876402
 20
-5.798160115951952
 10
0.7503814004144213
 20
-6.192011161964958
 10
0.5551291096018311
 20
-6.481484817392426
 10
0.4098842562957259
 20
-6.696812530124249
 10
0.3703322770627399
 20
-6.894276358394257
 10
0.4342010751033823
 20
-7.085107817230622
 10
0.4570846561470658
 20
-7.15339856871673
 10
0.5265697724365116
 20
-7.361138420172369
 10
0.67731094677645
 20
-7.361138420172369
 10
0.6881252752255543
 20
-7.361138420172369
 10
0.6991784766353583
 20
-7.360003493241897
 10
0.7086784430661872
 20
-7.358031950214484
 10
0.7328158267860088
 20
-7.456315276629916
 10
0.6513208957748486
 20
-7.567445033864004
 10
0.5884075895768761
 20
-7.653301358978525
 10
0.5884075895768761
 20
-7.653301358978525
 10
0.5620003519960772
 20
-7.689626871038655
 10
0.5620003519960772
 20
-7.689626871038655
 10
0.4217146359296056
 20
-7.884760286105516
 10
0.3172766860019292
 20
-8.072605272198965
 10
0.2425330001700129
 20
-8.263794479741694
 10
0.2425330001700129
 20
-8.263794479741694
 10
0.2315997959752111
 20
-8.291637198025043
 10
0.2315997959752111
 20
-8.291637198025043
 10
0.2048931260916394
 20
-8.359569079335547
 10
0.1716135246473217
 20
-8.444111042431793
 10
0.1501048649640509
 20
-8.529071313576475
 10
0.1171841336953708
 20
-8.659498193036448
 10
0.1192151145956486
 20
-8.76250178373088
 10
0.156378364221992
 20
-8.843877838996406
 10
0.1964686487184504
 20
-8.931885142226143
 10
0.2870441166426645
 20
-8.984163555062878
 10
0.4256577219844959
 20
-8.999219280400341
 10
0.4736936164635036
 20
-9.004476728473506
 10
0.5224472512938184
 20
-9.007225449725091
 10
0.5712008861241012
 20
-9.007225449725091
 10
0.6447490856834074
 20
-9.007225449725091
 10
0.7166251745180413
 20
-9.000951950467119
 10
0.7950719519748757
 20
-8.98667228188446
 10
0.8793156042375888
 20
-8.971557118674099
 10
1.036091404874801
 20
-8.943416089557282
 10
1.033999864632386
 20
-8.813585831764309
 10
1.032864937701945
 20
-8.736811165032115
 10
0.9874577672594881
 20
-8.677781507016135
 10
0.9435432724538688
 20
-8.620662832685497
 10
0.9139690055730466
 20
-8.582186342510152
 10
0.8860074115440322
 20
-8.54585970898078
 10
0.8741770319101204
 20
-8.507323780932538
 10
0.8569703284573776
 20
-8.451221157786705
 10
0.8844541765650572
 20
-8.390577705449614
 10
0.9558513980090834
 20
-8.32712609398817
 10
1.050968816593798
 20
-8.24252469301909
 10
1.281711124838786
 20
-8.067825570047134
 10
1.387702309745438
 20
-8.067825570047134
 10
1.407776610195431
 20
-8.067825570047134
 10
1.415066160638147
 20
-8.074397380138576
 10
1.419129243908007
 20
-8.080073136260243
 10
1.457127988162018
 20
-8.13306816797895
 10
1.468479500405323
 20
-8.200403427622387
 10
1.480489315127037
 20
-8.271621213978579
 10
1.488434925109618
 20
-8.318582740869315
 10
1.496620529522172
 20
-8.367156940611796
 10
1.513230611307914
 20
-8.411967489387187
 10
1.539877843318654
 20
-8.483842456752582
 10
1.568914926405308
 20
-8.569639343994268
 10
1.582178543803193
 20
-8.660991990142591
 10
1.602730590174489
 20
-8.802592068227337
 10
1.665763893587463
 20
-8.882474326386722
 10
1.769485224633169
 20
-8.898546102908993
 10
1.815012392290596
 20
-8.905595658921769
 10
1.864004900081546
 20
-8.907866634252018
 10
1.91550613469411
 20
-8.910197047455101
 10
1.91550613469411
 20
-8.910197047455101
 10
1.964618639700062
 20
-8.912586898531018
 10
1.964618639700062
 20
-8.912586898531018
 10
1.977582824795141
 20
-8.913244079540155
 10
1.990070385438191
 20
-8.91360182824652
 10
2.00213963803277
 20
-8.91360182824652
 10
2.20922230847924
 20
-8.91360182824652
 10
2.288625699248017
 20
-8.811973158912501
 10
2.317483347246837
 20
-8.751389144448307
 10
2.359365739682906
 20
-8.663381841218506
 10
2.346699865421326
 20
-8.561274304493912
 10
2.306071275661427
 20
-8.511505739948063
 10
2.241664172357313
 20
-8.44775581765315
 10
2.223501977061932
 20
-8.378628450070037
 10
2.202530501172828
 20
-8.298567878292154
 10
2.197989671981633
 20
-8.281360053370108
 10
2.160587549394622
 20
-8.148005017570746
 10
2.160587549394622
 20
-8.148005017570746
 10
2.137166784556771
 20
-8.064001359737974
 10
2.112909403621948
 20
-7.977189542780782
 10
2.082737393604821
 20
-7.893304760693739
 10
2.082737393604821
 20
-7.893304760693739
 10
2.072461370419188
 20
-7.86593978833166
 10
2.072461370419188
 20
-7.86593978833166
 10
2.048681735405668
 20
-7.804281406279131
 10
2.048622297532835
 20
-7.778530228238229
 10
2.052744818675528
 20
-7.767776459131262
 10
2.07795769145299
 20
-7.702173869554537
 10
2.429927466499264
 20
-7.598094789802467
 10
2.552647608937323
 20
-7.598094789802467
 10
2.555455768061741
 20
-7.598094789802467
 10
2.557785059795519
 20
-7.598154227675299
 10
2.559697164950099
 20
-7.598274224890269
 10
2.563282502298625
 20
-7.609686296475743
 10
2.566687283090042
 20
-7.631852137168119
 10
2.563521375259292
 20
-7.673614532389218
 10
2.554558592622631
 20
-7.792750458948056
 10
2.528090795699694
 20
-7.91379736919217
 10
2.502519052746595
 20
-8.030901193381458
 10
2.490630356709156
 20
-8.085391143675547
 10
2.478740539202411
 20
-8.139700537412528
 10
2.46852395388958
 20
-8.193950493276612
 10
2.454602034013253
 20
-8.26761869005092
 10
2.440144051812063
 20
-8.341166889610193
 10
2.425684948141568
 20
-8.414715089169468
 10
2.410748098549771
 20
-8.490654261273962
 10
2.395811248957973
 20
-8.566592311909217
 10
2.381472142502449
 20
-8.642650359759376
 10
2.381472142502449
 20
-8.642650359759376
 10
2.372928789383563
 20
-8.686085987174355
 10
2.372928789383563
 20
-8.686085987174355
 10
2.349746897506379
 20
-8.800681084542063
 10
2.32351797354411
 20
-8.930570780207868
 10
2.383503123402727
 20
-9.040086743120908
 10
2.395751811085109
 20
-9.06231202168618
 10
2.410389228374133
 20
-9.082685754438947
 10
2.427119307374846
 20
-9.100550760370131
 10
2.493616829452071
 20
-9.171768546726323
 10
2.591901277336809
 20
-9.207915745167892
 10
2.719162248966064
 20
-9.207915745167892
 10
2.776040928866762
 20
-9.207915745167892
 10
2.837699310919292
 20
-9.200925627028012
 10
2.907663294599346
 20
-9.186645958445288
 10
3.030503434252407
 20
-9.161431964198554
 10
3.200004547024063
 20
-9.115665923580492
 10
3.253419008260511
 20
-9.009196992752505
 10
3.276600900137695
 20
-8.962893768340274
 10
3.275285416650115
 20
-8.911511409473377
 10
3.249415362863484
 20
-8.856543713257954
 10
3.233702456516851
 20
-8.823026360322242
 10
3.21153549435517
 20
-8.795483074341728
 10
3.190026834671899
 20
-8.76883584233099
 10
3.171087461152378
 20
-8.745295080278137
 10
3.153223576690466
 20
-8.723069801712928
 10
3.141034326880917
 20
-8.698394112729602
 10
3.120242286079649
 20
-8.65633228520573
 10
3.118091307964401
 20
-8.605009364211664
 10
3.133984770868173
 20
-8.531998348446558
 10
3.142109815938557
 20
-8.494956217504523
 10
3.153640763269664
 20
-8.45892789480862
 10
3.165112272727938
 20
-8.422841255709189
 10
3.1743733661981
 20
-8.393744734749701
 10
3.183634459668261
 20
-8.364707651663046
 10
3.191281758817342
 20
-8.335192822655058
 10
3.201498344130173
 20
-8.29593915425554
 10
3.208608459485087
 20
-8.256087742719782
 10
3.21571857484
 20
-8.21617689331119
 10
3.217884132056114
 20
-8.20400895141827
 10
3.224206975963241
 20
-8.17692546785028
 10
3.234384309850566
 20
-8.156060531544586
 10
3.264471088200978
 20
-8.179855867128278
 10
3.294861784731383
 20
-8.203153270343277
 10
3.325509297731236
 20
-8.226043580202758
 10
3.331502429664489
 20
-8.241378551395636
 10
3.337586400610916
 20
-8.256432033794553
 10
3.343935038311893
 20
-8.27048628704817
 10
3.403801312424812
 20
-8.402765833789891
 10
3.433795008823409
 20
-8.505948859572124
 10
3.409715941507116
 20
-8.642112054495904
 10
3.394421343208954
 20
-8.729103306540896
 10
3.3859374279629
 20
-8.827686065259103
 10
3.479500490099366
 20
-8.897231740890717
 10
3.588897577266708
 20
-8.978606674686874
 10
3.747644920931366
 20
-9.00101138833995
 10
3.861522277947766
 20
-9.005492779658313
 10
3.877534616597203
 20
-9.006149960667452
 10
3.894204136255778
 20
-9.006508830843057
 10
3.911351401835689
 20
-9.006508830843057
 10
4.034858815721567
 20
-9.006508830843057
 10
4.128379262024644
 20
-8.985297360524045
 10
4.195823304190132
 20
-8.94178435172742
 10
4.198371282437188
 20
-8.961653423295665
 10
4.203291168251379
 20
-8.97991991523591
 10
4.210879029527628
 20
-8.996536725837418
 10
4.234157367764509
 20
-9.04763759591029
 10
4.286750913474188
 20
-9.07799352689244
 10
4.36723652211637
 20
-9.086736501546518
 10
4.395129706518177
 20
-9.089789140978095
 10
4.423437834560541
 20
-9.091384991790395
 10
4.451747084072242
 20
-9.091384991790395
 10
4.494452634973658
 20
-9.091384991790395
 10
4.536186993462265
 20
-9.087742459507583
 10
4.581737711974964
 20
-9.079450315511652
 10
4.630653959853606
 20
-9.070673696778622
 10
4.721685865782461
 20
-9.05433388909392
 10
4.720471314531765
 20
-8.978947601353733
 10
4.719813012053323
 20
-8.934368075253905
 10
4.693446147367304
 20
-8.90009260907214
 10
4.667948421387935
 20
-8.866926276027026
 10
4.650775362014143
 20
-8.844585486124002
 10
4.63453985097421
 20
-8.823491770081288
 10
4.627670851518572
 20
-8.801116214630008
 10
4.617678560065543
 20
-8.768539774436068
 10
4.633637068188607
 20
-8.733327881389812
 10
4.67509442376041
 20
-8.696484250513631
 10
4.73032454379174
 20
-8.647360530814694
 10
4.864305359459897
 20
-8.545920268322918
 10
4.925849351643949
 20
-8.545920268322918
 10
4.937505903536517
 20
-8.545920268322918
 10
4.941738328670501
 20
-8.54973662834701
 10
4.944096778606044
 20
-8.553032626616377
 10
4.966161687061567
 20
-8.583804622708419
 10
4.972752562131094
 20
-8.622902406875342
 10
4.979725858231529
 20
-8.664255465802311
 10
4.98433958292715
 20
-8.691523991804628
 10
4.989092369815794
 20
-8.719727823202257
 10
4.998737005786203
 20
-8.74574703240559
 10
5.014209917702863
 20
-8.787481390894197
 10
5.031070087142257
 20
-8.837299300089137
 10
5.038771216817679
 20
-8.890343676456995
 10
5.050705893096421
 20
-8.972564198104532
 10
5.087306165134684
 20
-9.018948168306258
 10
5.147531309423273
 20
-9.028279914342267
 10
5.173966583736499
 20
-9.032373277283229
 10
5.202414895441287
 20
-9.033692125178659
 10
5.232318874295983
 20
-9.035044617153105
 10
5.232318874295983
 20
-9.035044617153105
 10
5.260835595627912
 20
-9.03643187467587
 10
5.260835595627912
 20
-9.03643187467587
 10
5.268364019031329
 20
-9.036814295706748
 10
5.275614318048634
 20
-9.037021767527042
 10
5.282622379697326
 20
-9.037021767527042
 10
5.402865196454146
 20
-9.037021767527042
 10
5.448971042269824
 20
-8.978011174489179
 10
5.465726915064419
 20
-8.942832925521875
 10
5.49004709827999
 20
-8.891732055449001
 10
5.482691381148612
 20
-8.832443338024966
 10
5.459101274446605
 20
-8.803544195662093
 10
5.421703637736814
 20
-8.766527858513875
 10
5.411156218980771
 20
-8.726389350837568
 10
5.398979305333542
 20
-8.679902205460316
 10
5.396342731011858
 20
-8.669909914007318
 10
5.374625478039021
 20
-8.592478066265986
 10
5.374625478039021
 20
-8.592478066265986
 10
5.361026541320771
 20
-8.543700880580431
 10
5.346942008396117
 20
-8.493293078534256
 10
5.329422415008944
 20
-8.444585423945213
 10
5.329422415008944
 20
-8.444585423945213
 10
5.323455076869636
 20
-8.428696446918659
 10
5.323455076869636
 20
-8.428696446918659
 10
5.309647546861788
 20
-8.3928935395518
 10
5.309612781313532
 20
-8.377942110859104
 10
5.312007118266602
 20
-8.371696648333621
 10
5.326646778494236
 20
-8.333604822127826
 10
5.531017736176018
 20
-8.27317108454964
 10
5.602275895426989
 20
-8.27317108454964
 10
5.603906511787545
 20
-8.27317108454964
 10
5.605259003761991
 20
-8.273205850097895
 10
5.606369258367886
 20
-8.273275381194471
 10
5.608450705386655
 20
-8.279902143281525
 10
5.610427855760592
 20
-8.292772124955517
 10
5.608589767579678
 20
-8.317022777074575
 10
5.603386150032885
 20
-8.386198367837473
 10
5.588017534760993
 20
-8.45648421320633
 10
5.573169281243824
 20
-8.524481139736126
 10
5.566265516239899
 20
-8.55612003159621
 10
5.559361751235975
 20
-8.587655748280765
 10
5.553429178644859
 20
-8.619155577947762
 10
5.545345627938527
 20
-8.661930659945753
 10
5.536950308767135
 20
-8.704637332316475
 10
5.528554989595677
 20
-8.74734288321789
 10
5.51988154603811
 20
-8.791436813111376
 10
5.511209223949847
 20
-8.835530743004798
 10
5.502882314405661
 20
-8.879693082525492
 10
5.502882314405661
 20
-8.879693082525492
 10
5.497922055696723
 20
-8.904914927057359
 10
5.497922055696723
 20
-8.904914927057359
 10
5.484461059702255
 20
-8.971453943498636
 10
5.469231506623385
 20
-9.046874996787016
 10
5.504062100108068
 20
-9.110465670441549
 10
5.511174458401591
 20
-9.123370417663795
 10
5.519674074217816
 20
-9.135200797297706
 10
5.529387119815462
 20
-9.145573266843037
 10
5.567999307775982
 20
-9.186926325770072
 10
5.625068637457467
 20
-9.207915745167892
 10
5.698962249560817
 20
-9.207915745167892
 10
5.731989520412906
 20
-9.207915745167892
 10
5.767791306310398
 20
-9.203856026305944
 10
5.808416531662415
 20
-9.195565003779318
 10
5.879743100540592
 20
-9.180925343551749
 10
5.978164367679808
 20
-9.154351007045436
 10
6.009179722609704
 20
-9.092530011944547
 10
6.022639597134867
 20
-9.065642785503803
 10
6.021876998011657
 20
-9.035808337745683
 10
6.006854916753081
 20
-9.00389132149949
 10
5.997730642537429
 20
-8.984429343286699
 10
5.984859539394133
 20
-8.968436069615315
 10
5.972370857281779
 20
-8.952963157698655
 10
5.961373729336957
 20
-8.939294689883894
 10
5.951000138322259
 20
-8.926388821192342
 10
5.94392366704636
 20
-8.912060929429833
 10
5.931851050043899
 20
-8.8876375710388
 10
5.930601733244916
 20
-8.857837888828872
 10
5.939829182636094
 20
-8.815444106392517
 10
5.944548325445788
 20
-8.793934325239974
 10
5.951243497160113
 20
-8.773015558407906
 10
5.957903903326183
 20
-8.752060904558343
 10
5.963281348614319
 20
-8.73516596957066
 10
5.968658793902454
 20
-8.718305800131235
 10
5.973099812326038
 20
-8.701167506305763
 10
5.979031263447848
 20
-8.678374764275286
 10
5.983160513406307
 20
-8.655235488231428
 10
5.987288641895524
 20
-8.632061446639312
 10
5.990653049792162
 20
-8.613154595729503
 10
6.011295935176664
 20
-8.532217034959837
 10
6.045883169823493
 20
-8.624463492139386
 10
6.050983612194823
 20
-8.638066914734855
 10
6.056221995289872
 20
-8.65138436265908
 10
6.06173738130179
 20
-8.663596041854564
 10
6.096499565159267
 20
-8.74040435266571
 10
6.113914861901608
 20
-8.800317728489238
 10
6.099933504152416
 20
-8.87938131406043
 10
6.091052588774555
 20
-8.929893412751372
 10
6.086125974144568
 20
-8.987135448704896
 10
6.140454432859666
 20
-9.027516193749753
 10
6.203975575417622
 20
-9.07476705971952
 10
6.29615250150066
 20
-9.087777225055902
 10
6.362275452832044
 20
-9.090379033829267
 10
6.371572433319734
 20
-9.090760333390904
 10
6.38125183483843
 20
-9.090968926680503
 10
6.391208239273868
 20
-9.090968926680503
 10
6.473428760921404
 20
-9.090968926680503
 10
6.532787009441952
 20
-9.074801825267775
 10
6.572648514201454
 20
-9.041462785950625
 10
6.602615295336832
 20
-9.016437198546067
 10
6.611299953587384
 20
-8.989106991732308
 10
6.609110845515998
 20
-8.962270231410088
 10
7.402156738751195
 20
-8.804258571605454
 10
8.131246359340427
 20
-8.416406264872162
 10
8.715986059124084
 20
-7.831666565088567
 10
9.496833730795325
 20
-7.050818893417262
 10
9.92686786226746
 20
-6.012643362301702
 10
9.92686786226746
 20
-4.908363944832876
 97
        0
 92
        1
 93
        1
 72
     4
 94
        3
 73
     0
 74
     1
 95
      308
 96
      304
 40
0.0
 40
0.0
 40
0.0
 40
0.0
 40
1.0
 40
1.0
 40
1.0
 40
2.0
 40
2.0
 40
2.0
 40
3.0
 40
3.0
 40
3.0
 40
4.0
 40
4.0
 40
4.0
 40
5.0
 40
5.0
 40
5.0
 40
6.0
 40
6.0
 40
6.0
 40
7.0
 40
7.0
 40
7.0
 40
8.0
 40
8.0
 40
8.0
 40
9.0
 40
9.0
 40
9.0
 40
10.0
 40
10.0
 40
10.0
 40
11.0
 40
11.0
 40
11.0
 40
12.0
 40
12.0
 40
12.0
 40
13.0
 40
13.0
 40
13.0
 40
14.0
 40
14.0
 40
14.0
 40
15.0
 40
15.0
 40
15.0
 40
16.0
 40
16.0
 40
16.0
 40
17.0
 40
17.0
 40
17.0
 40
18.0
 40
18.0
 40
18.0
 40
19.0
 40
19.0
 40
19.0
 40
20.0
 40
20.0
 40
20.0
 40
21.0
 40
21.0
 40
21.0
 40
22.0
 40
22.0
 40
22.0
 40
23.0
 40
23.0
 40
23.0
 40
24.0
 40
24.0
 40
24.0
 40
25.0
 40
25.0
 40
25.0
 40
26.0
 40
26.0
 40
26.0
 40
27.0
 40
27.0
 40
27.0
 40
28.0
 40
28.0
 40
28.0
 40
29.0
 40
29.0
 40
29.0
 40
30.0
 40
30.0
 40
30.0
 40
31.0
 40
31.0
 40
31.0
 40
32.0
 40
32.0
 40
32.0
 40
33.0
 40
33.0
 40
33.0
 40
34.0
 40
34.0
 40
34.0
 40
35.0
 40
35.0
 40
35.0
 40
36.0
 40
36.0
 40
36.0
 40
37.0
 40
37.0
 40
37.0
 40
38.0
 40
38.0
 40
38.0
 40
39.0
 40
39.0
 40
39.0
 40
40.0
 40
40.0
 40
40.0
 40
41.0
 40
41.0
 40
41.0
 40
42.0
 40
42.0
 40
42.0
 40
43.0
 40
43.0
 40
43.0
 40
44.0
 40
44.0
 40
44.0
 40
45.0
 40
45.0
 40
45.0
 40
46.0
 40
46.0
 40
46.0
 40
47.0
 40
47.0
 40
47.0
 40
48.0
 40
48.0
 40
48.0
 40
49.0
 40
49.0
 40
49.0
 40
50.0
 40
50.0
 40
50.0
 40
51.0
 40
51.0
 40
51.0
 40
52.0
 40
52.0
 40
52.0
 40
53.0
 40
53.0
 40
53.0
 40
54.0
 40
54.0
 40
54.0
 40
55.0
 40
55.0
 40
55.0
 40
56.0
 40
56.0
 40
56.0
 40
57.0
 40
57.0
 40
57.0
 40
58.0
 40
58.0
 40
58.0
 40
59.0
 40
59.0
 40
59.0
 40
60.0
 40
60.0
 40
60.0
 40
61.0
 40
61.0
 40
61.0
 40
62.0
 40
62.0
 40
62.0
 40
63.0
 40
63.0
 40
63.0
 40
64.0
 40
64.0
 40
64.0
 40
65.0
 40
65.0
 40
65.0
 40
66.0
 40
66.0
 40
66.0
 40
67.0
 40
67.0
 40
67.0
 40
68.0
 40
68.0
 40
68.0
 40
69.0
 40
69.0
 40
69.0
 40
70.0
 40
70.0
 40
70.0
 40
71.0
 40
71.0
 40
71.0
 40
72.0
 40
72.0
 40
72.0
 40
73.0
 40
73.0
 40
73.0
 40
74.0
 40
74.0
 40
74.0
 40
75.0
 40
75.0
 40
75.0
 40
76.0
 40
76.0
 40
76.0
 40
77.0
 40
77.0
 40
77.0
 40
78.0
 40
78.0
 40
78.0
 40
79.0
 40
79.0
 40
79.0
 40
80.0
 40
80.0
 40
80.0
 40
81.0
 40
81.0
 40
81.0
 40
82.0
 40
82.0
 40
82.0
 40
83.0
 40
83.0
 40
83.0
 40
84.0
 40
84.0
 40
84.0
 40
85.0
 40
85.0
 40
85.0
 40
86.0
 40
86.0
 40
86.0
 40
87.0
 40
87.0
 40
87.0
 40
88.0
 40
88.0
 40
88.0
 40
89.0
 40
89.0
 40
89.0
 40
90.0
 40
90.0
 40
90.0
 40
91.0
 40
91.0
 40
91.0
 40
92.0
 40
92.0
 40
92.0
 40
93.0
 40
93.0
 40
93.0
 40
94.0
 40
94.0
 40
94.0
 40
95.0
 40
95.0
 40
95.0
 40
96.0
 40
96.0
 40
96.0
 40
97.0
 40
97.0
 40
97.0
 40
98.0
 40
98.0
 40
98.0
 40
99.0
 40
99.0
 40
99.0
 40
100.0
 40
100.0
 40
100.0
 40
101.0
 40
101.0
 40
101.0
 40
101.0
 10
6.525339331828095
 20
-8.790629355216169
 10
6.511617033486961
 20
-8.757214055986678
 10
6.501665114928679
 20
-8.721478436777783
 10
6.492023843366217
 20
-8.686493080529873
 10
6.484773544348911
 20
-8.660162102861415
 10
6.477556889410621
 20
-8.63396906591674
 10
6.468849801774103
 20
-8.608678811757601
 10
6.449283526916481
 20
-8.55192237201048
 10
6.426767787802873
 20
-8.495548353294303
 10
6.404183639061931
 20
-8.43906891646399
 10
6.359188047852212
 20
-8.326389288658842
 10
6.312631371378449
 20
-8.209858535281281
 10
6.291225886870673
 20
-8.090725973130294
 10
6.282656739957872
 20
-8.042989510954122
 10
6.280853417325278
 20
-7.993275898403951
 10
6.279118504319891
 20
-7.945192902214399
 10
6.277869187520972
 20
-7.910430718356922
 10
6.276586226643039
 20
-7.875704421517071
 10
6.272978459908545
 20
-7.841081299852681
 10
6.270549357407155
 20
-7.817594368326201
 10
6.265171912119019
 20
-7.794524623378854
 10
6.259759701282627
 20
-7.771488522510523
 10
6.253029764020046
 20
-7.742660032713466
 10
6.246646360770781
 20
-7.715461037807661
 10
6.246230295660889
 20
-7.687708037068246
 10
6.245779465002741
 20
-7.65135000239847
 10
6.259552229462334
 20
-7.614542258539849
 10
6.287236820574543
 20
-7.578358051611416
 10
6.339691304091166
 20
-7.50977235369969
 10
6.422049766462421
 20
-7.471506699752553
 10
6.487965245973576
 20
-7.445834024562536
 10
6.584998134120721
 20
-7.408020322742852
 10
6.701946074077479
 20
-7.314317076944025
 10
6.835510824635743
 20
-7.167360861487805
 10
6.835510824635743
 20
-7.167360861487805
 10
6.84463397738209
 20
-7.157404457052367
 10
6.84463397738209
 20
-7.157404457052367
 10
6.895007013880009
 20
-7.104949973535744
 10
6.947080197834995
 20
-7.050691045917222
 10
6.978927682984677
 20
-6.980579028289707
 10
6.978927682984677
 20
-6.980579028289707
 10
6.983437111035466
 20
-6.968644352011028
 10
6.983437111035466
 20
-6.968644352011028
 10
6.983437111035466
 20
-6.968644352011028
 10
6.9774708943654
 20
-6.95938213707153
 10
6.9774708943654
 20
-6.95938213707153
 10
6.970393301620197
 20
-6.948383887657403
 10
6.957140898915264
 20
-6.946302440638699
 10
6.935145521556316
 20
-6.946302440638699
 10
6.906941690158688
 20
-6.946302440638699
 10
6.861911333400713
 20
-6.950500100224364
 10
6.825935719761878
 20
-6.954490287989798
 10
6.877835075975522
 20
-6.90342306199594
 10
6.951589625885785
 20
-6.829043853686121
 10
6.96969911212413
 20
-6.801463559218743
 10
7.046542188483531
 20
-6.684447209634779
 10
7.064651674721939
 20
-6.519485804585046
 10
7.016915212545705
 20
-6.370900094237511
 10
6.983090577022086
 20
-6.265539175076874
 10
6.912665669460205
 20
-6.185505518562114
 10
6.828537528535243
 20
-6.156814969488841
 10
6.804946300363995
 20
-6.148800949879021
 10
6.780141642411325
 20
-6.144707586938123
 10
6.754781857155675
 20
-6.144707586938123
 10
6.674400545158292
 20
-6.144707586938123
 10
6.593949702064399
 20
-6.186302883233644
 10
6.544755329799647
 20
-6.253224320705799
 10
6.495424138280416
 20
-6.320353229998313
 10
6.476343459629199
 20
-6.422070495406895
 10
6.535284521570549
 20
-6.486632361474236
 10
6.548815048661592
 20
-6.501445849443213
 10
6.575979278019141
 20
-6.526320038492395
 10
6.605987553518604
 20
-6.526320038492395
 10
6.619344252868305
 20
-6.526320038492395
 10
6.643801255338289
 20
-6.520977358752515
 10
6.657436079074099
 20
-6.485348279127061
 10
6.660523484053932
 20
-6.477335380986545
 10
6.663368651665215
 20
-6.468938940345784
 10
6.666247463355449
 20
-6.460405680450608
 10
6.676898057286889
 20
-6.428974260410819
 10
6.687929950780031
 20
-6.39650211686171
 10
6.713117029763643
 20
-6.37995371588741
 10
6.721338521193693
 20
-6.374542626520324
 10
6.730705032777959
 20
-6.371801755553808
 10
6.740904796051314
 20
-6.371801755553808
 10
6.764356962029539
 20
-6.371801755553808
 10
6.789231151078721
 20
-6.386684774619297
 10
6.80144283027427
 20
-6.408019606561256
 10
6.851156442824442
 20
-6.495097211742205
 10
6.777158534076259
 20
-6.630396875305856
 10
6.706351205483437
 20
-6.681671573120072
 10
6.638806231081094
 20
-6.730621465077665
 10
6.54624800543642
 20
-6.75542724449964
 10
6.431278337322968
 20
-6.75542724449964
 10
6.369976582507435
 20
-6.75542724449964
 10
6.301321353499197
 20
-6.748558245043972
 10
6.221321341063452
 20
-6.734403059553501
 10
6.221321341063452
 20
-6.734403059553501
 10
6.205710488423009
 20
-6.731593778959779
 10
6.205710488423009
 20
-6.731593778959779
 10
6.171191663403387
 20
-6.725348316434297
 10
6.132024348139952
 20
-6.718237079610079
 10
6.093966166013108
 20
-6.718237079610079
 10
6.053446358775164
 20
-6.718237079610079
 10
6.019656488799865
 20
-6.726216333671643
 10
5.990722580888673
 20
-6.7425909069046
 10
5.95162479672175
 20
-6.764689459439074
 10
5.920783269533197
 20
-6.789979713598213
 10
5.890948821775012
 20
-6.814437837537502
 10
5.853377357323878
 20
-6.845279364726055
 10
5.817852574343192
 20
-6.874385978909285
 10
5.7670982382837
 20
-6.897074424294932
 10
5.677384058781003
 20
-6.937178166422983
 10
5.579899218506405
 20
-6.949737501101154
 10
5.493862336834776
 20
-6.960804160142486
 10
5.493862336834776
 20
-6.960804160142486
 10
5.459830229490864
 20
-6.96524517856607
 10
5.459830229490864
 20
-6.96524517856607
 10
5.411815642928518
 20
-6.971662225894285
 10
5.321616988688723
 20
-6.999172989265151
 10
5.280575698226877
 20
-7.037751533146719
 10
5.260245702776741
 20
-7.056797446249616
 10
5.25028929834124
 20
-7.076814551765387
 10
5.241477914059954
 20
-7.094438441797327
 10
5.230688257935363
 20
-7.116086163673653
 10
5.222153876570882
 20
-7.133154926402613
 10
5.19641279175366
 20
-7.147030866037668
 10
5.160228584825226
 20
-7.166528731268083
 10
5.11134710249484
 20
-7.170829566029274
 10
5.064062592446058
 20
-7.174993581535988
 10
5.041130788222525
 20
-7.177040263006501
 10
5.01875411130194
 20
-7.179017413380373
 10
4.99832094067631
 20
-7.182590414566611
 10
4.736777478137516
 20
-7.228036836434542
 10
4.55578803386811
 20
-7.456727977331895
 10
4.442414216566926
 20
-7.624810431440412
 10
4.358077482352398
 20
-7.749840800634196
 10
4.335112034049883
 20
-7.864498700282651
 10
4.372197902294612
 20
-7.975305474358693
 10
4.385485070547769
 20
-8.014958385828532
 10
4.425832171513643
 20
-8.13558250214699
 10
4.5133594858835
 20
-8.13558250214699
 10
4.519638592487965
 20
-8.13558250214699
 10
4.526056761285453
 20
-8.134923078199241
 10
4.531573268766643
 20
-8.133779179514395
 10
4.545589392064091
 20
-8.19084738772664
 10
4.498268994997749
 20
-8.255374488245725
 10
4.461738254055966
 20
-8.30522716298892
 10
4.461738254055966
 20
-8.30522716298892
 10
4.446404404332362
 20
-8.326319757562265
 10
4.446404404332362
 20
-8.326319757562265
 10
4.364947603277339
 20
-8.439624043766969
 10
4.304305272409585
 20
-8.548695904837626
 10
4.260905532012166
 20
-8.659711272203266
 10
4.260905532012166
 20
-8.659711272203266
 10
4.25455689431119
 20
-8.675877252146625
 10
4.25455689431119
 20
-8.675877252146625
 10
4.253834668082695
 20
-8.67771534032754
 10
4.253023845779604
 20
-8.679822581140124
 10
4.252285918980939
 20
-8.68170216368506
 10
4.238635394674958
 20
-8.656395087486477
 10
4.222987533547649
 20
-8.632744421442332
 10
4.209129537421375
 20
-8.61182116873311
 10
4.199869565420486
 20
-8.597839810983919
 10
4.190847344910992
 20
-8.584157885537564
 10
4.18278173771344
 20
-8.570894268139712
 10
4.135401902774266
 20
-8.49298355300774
 10
4.109770721948302
 20
-8.399898236792641
 10
4.084976157219311
 20
-8.309919390535427
 10
4.072488596576261
 20
-8.264571657965803
 10
4.060061595275349
 20
-8.219462798356878
 10
4.045065307810719
 20
-8.175907173726928
 10
4.011367398317899
 20
-8.078161031105664
 10
3.972592597309053
 20
-7.981072069493536
 10
3.9336966776159
 20
-7.883804794262846
 10
3.856205392001767
 20
-7.689746868253625
 10
3.776024823008882
 20
-7.489056572810762
 10
3.739161005685312
 20
-7.283886007518841
 10
3.724403591181349
 20
-7.201674457625742
 10
3.721297121223432
 20
-7.116057005471856
 10
3.718309527011211
 20
-7.033247712442389
 10
3.716158548895963
 20
-6.973381438329469
 10
3.71394813290785
 20
-6.913574602089382
 10
3.707734071522742
 20
-6.853947200937099
 10
3.703552112507216
 20
-6.813498046265035
 10
3.694291019037055
 20
-6.773766631944246
 10
3.684970487694029
 20
-6.73409465549629
 10
3.673380102490089
 20
-6.68444496669617
 10
3.66238633895315
 20
-6.637603437020467
 10
3.661669720071179
 20
-6.589806415502095
 10
3.66089254184704
 20
-6.527191420137656
 10
3.684611617518391
 20
-6.463800368018347
 10
3.732289763291066
 20
-6.401483683487311
 10
3.822627479723917
 20
-6.28336380811328
 10
3.964466430769332
 20
-6.217462907703087
 10
4.077986039079399
 20
-6.17325122353324
 10
4.245097300775107
 20
-6.10812637987785
 10
4.446504215099941
 20
-5.946750312176643
 10
4.676529904462959
 20
-5.693662728151379
 10
4.676529904462959
 20
-5.693662728151379
 10
4.692243932278897
 20
-5.676515462571468
 10
4.692243932278897
 20
-5.676515462571468
 10
4.778996311363223
 20
-5.58617774613865
 10
4.868675725317632
 20
-5.49273355974788
 10
4.923523424318053
 20
-5.371984960337234
 10
4.923523424318053
 20
-5.371984960337234
 10
4.931290720682136
 20
-5.351431792496602
 10
4.931290720682136
 20
-5.351431792496602
 10
4.931290720682136
 20
-5.351431792496602
 10
4.921014697496473
 20
-5.335480013189301
 10
4.921014697496473
 20
-5.335480013189301
 10
4.908826569156227
 20
-5.316539518200476
 10
4.886002425985377
 20
-5.312955302321255
 10
4.848123678946336
 20
-5.312955302321255
 10
4.799549479203856
 20
-5.312955302321255
 10
4.721997634247554
 20
-5.320184293421898
 10
4.660039819892187
 20
-5.327055535816112
 10
4.749420923013096
 20
-5.239107670459208
 10
4.876443021681683
 20
-5.111010082732949
 10
4.907631082883618
 20
-5.063511372048109
 10
5.039970067498203
 20
-4.86198558197761
 10
5.071158128700073
 20
-4.577889371838278
 10
4.988946578806943
 20
-4.321992507219356
 10
4.930692977545831
 20
-4.140542139068123
 10
4.809407194341017
 20
-4.002705711950432
 10
4.66452121121055
 20
-3.953294896110979
 10
4.623892621450619
 20
-3.939492973449622
 10
4.58117361291761
 20
-3.932443417436846
 10
4.537499112541963
 20
-3.932443417436846
 10
4.399064942287934
 20
-3.932443417436846
 10
4.26051189628824
 20
-4.00407951184154
 10
4.175791619573497
 20
-4.119331790218353
 10
4.090831348428781
 20
-4.234941817301531
 10
4.057970055032934
 20
-4.410119807664127
 10
4.159479848621254
 20
-4.52130900277108
 10
4.18278173771344
 20
-4.546820186382042
 10
4.22956382951631
 20
-4.589659192130052
 10
4.281244499216676
 20
-4.589659192130052
 10
4.304246956006057
 20
-4.589659192130052
 10
4.346368221402761
 20
-4.580457536532724
 10
4.36984954558275
 20
-4.519097465313695
 10
4.375166431528748
 20
-4.505296664121643
 10
4.380066130895581
 20
-4.490837560451148
 10
4.385025268135246
 20
-4.476139583820018
 10
4.403366898518462
 20
-4.422009625170872
 10
4.42236683138012
 20
-4.366086437112811
 10
4.465743020922267
 20
-4.337586537820323
 10
4.479902692289957
 20
-4.328266006477297
 10
4.496035028154396
 20
-4.323546863667604
 10
4.513600601782777
 20
-4.323546863667604
 10
4.553989197112703
 20
-4.323546863667604
 10
4.596828202860714
 20
-4.349178044493568
 10
4.61785911662265
 20
-4.385921864602136
 10
4.703475447307198
 20
-4.53588698218724
 10
4.576036162059446
 20
-4.768900265762478
 10
4.45409207637619
 20
-4.857205879825747
 10
4.337765430411042
 20
-4.941508969961324
 10
4.178360905737247
 20
-4.984227978494334
 10
3.980358772203799
 20
-4.984227978494334
 10
3.87478589534565
 20
-4.984227978494334
 10
3.75654714422589
 20
-4.972397598860423
 10
3.618771276450336
 20
-4.948021342179933
 10
3.618771276450336
 20
-4.948021342179933
 10
3.591885171478929
 20
-4.943181080685965
 10
3.591885171478929
 20
-4.943181080685965
 10
3.532436083945175
 20
-4.932427311578966
 10
3.464981948556039
 20
-4.920178623896584
 10
3.399439918321452
 20
-4.920178623896584
 10
3.329655369729201
 20
-4.920178623896584
 10
3.271462327810227
 20
-4.933921108685076
 10
3.221633203922304
 20
-4.96212157567479
 10
3.154297944278802
 20
-5.000179757801634
 10
3.101184036814463
 20
-5.043735382431616
 10
3.049801677947565
 20
-5.085856647828352
 10
2.985095142340677
 20
-5.138971676762027
 10
2.923914506209451
 20
-5.189100232952724
 10
2.836504946115987
 20
-5.228174466264374
 10
2.681998999339688
 20
-5.29724127450535
 10
2.514110559419839
 20
-5.318869931403558
 10
2.365937549774347
 20
-5.337929302138049
 10
2.365937549774347
 20
-5.337929302138049
 10
2.30732619980687
 20
-5.345576601287131
 10
2.30732619980687
 20
-5.345576601287131
 10
2.224636903992372
 20
-5.356629802696935
 10
2.069294341119133
 20
-5.404009637636109
 10
1.998613738557077
 20
-5.470447721840469
 10
1.963602588515287
 20
-5.503248455894211
 10
1.946455322935376
 20
-5.537722422141835
 10
1.931279600382912
 20
-5.568073867246764
 10
1.922934747329913
 20
-5.584817403879071
 10
1.915249318224694
 20
-5.59989219419465
 10
1.905435340390162
 20
-5.613670566000703
 10
1.864004900081546
 20
-5.384740552142715
 10
1.842240545398165
 20
-5.149053685758958
 10
1.842240545398165
 20
-4.908363944832876
 10
1.842240545398165
 20
-2.730084780964966
 10
3.614395303246077
 20
-0.9579210513626157
 10
5.792683438868393
 20
-0.9579210513626157
 10
7.970971574490675
 20
-0.9579210513626157
 10
9.743126332338651
 20
-2.730084780964966
 10
9.743126332338651
 20
-4.908363944832876
 10
9.743126332338651
 20
-6.836373777023617
 10
8.354784348809444
 20
-8.446150995086413
 10
6.525339331828095
 20
-8.790629355216169
 97
        0
 75
     2
 76
     1
 98
        0
  0
ENDSEC
  0
SECTION
  2
OBJECTS
  0
DICTIONARY
  5
C
330
0
100
AcDbDictionary
281
     1
  3
ACAD_GROUP
350
D
  3
ACAD_LAYOUT
350
1A
  3
ACAD_MATERIAL
350
3B
  3
ACAD_MLEADERSTYLE
350
65
  3
ACAD_MLINESTYLE
350
17
  3
ACAD_PLOTSETTINGS
350
19
  3
ACAD_PLOTSTYLENAME
350
E
  3
ACAD_TABLESTYLE
350
64
  3
ACAD_VISUALSTYLE
350
2A
  0
SUN
  5
3F
330
29
100
AcDbSun
 90
        1
290
     0
 63
     7
421
 16777215
 40
1.0
291
     1
 91
  2455826
 92
 54000000
292
     0
 70
     2
 71
   256
280
     1
  0
DICTIONARY
  5
D
102
{ACAD_REACTORS
330
C
102
}
330
C
100
AcDbDictionary
281
     1
  0
DICTIONARY
  5
1A
102
{ACAD_REACTORS
330
C
102
}
330
C
100
AcDbDictionary
281
     1
  3
Layout1
350
1E
  3
Layout2
350
26
  3
Model
350
22
  0
DICTIONARY
  5
3B
102
{ACAD_REACTORS
330
C
102
}
330
C
100
AcDbDictionary
281
     1
  3
ByBlock
350
3D
  3
ByLayer
350
3C
  3
Global
350
3E
  0
DICTIONARY
  5
65
102
{ACAD_REACTORS
330
C
102
}
330
C
100
AcDbDictionary
281
     1
  0
DICTIONARY
  5
17
102
{ACAD_REACTORS
330
C
102
}
330
C
100
AcDbDictionary
281
     1
  3
Standard
350
18
  0
DICTIONARY
  5
19
102
{ACAD_REACTORS
330
C
102
}
330
C
100
AcDbDictionary
281
     1
  0
ACDBDICTIONARYWDFLT
  5
E
102
{ACAD_REACTORS
330
C
102
}
330
C
100
AcDbDictionary
281
     1
  3
Normal
350
F
100
AcDbDictionaryWithDefault
340
F
  0
DICTIONARY
  5
64
102
{ACAD_REACTORS
330
C
102
}
330
C
100
AcDbDictionary
281
     1
  0
DICTIONARY
  5
2A
102
{ACAD_REACTORS
330
C
102
}
330
C
100
AcDbDictionary
281
     1
  3
2dWireframe
350
2F
  3
3D Hidden
350
31
  3
3dWireframe
350
30
  3
Basic
350
32
  3
Brighten
350
36
  3
ColorChange
350
3A
  3
Conceptual
350
34
  3
Dim
350
35
  3
Facepattern
350
39
  3
Flat
350
2B
  3
FlatWithEdges
350
2C
  3
Gouraud
350
2D
  3
GouraudWithEdges
350
2E
  3
Linepattern
350
38
  3
Realistic
350
33
  3
Thicken
350
37
  0
LAYOUT
  5
1E
102
{ACAD_REACTORS
330
1A
102
}
330
1A
100
AcDbPlotSettings
  1

  2
none_device
  4

  6

 40
0.0
 41
0.0
 42
0.0
 43
0.0
 44
0.0
 45
0.0
 46
0.0
 47
0.0
 48
0.0
 49
0.0
140
0.0
141
0.0
142
1.0
143
1.0
 70
   688
 72
     0
 73
     0
 74
     5
  7

 75
    16
 76
     0
 77
     2
 78
   300
147
1.0
148
0.0
149
0.0
100
AcDbLayout
  1
Layout1
 70
     1
 71
     1
 10
0.0
 20
0.0
 11
12.0
 21
9.0
 12
0.0
 22
0.0
 32
0.0
 14
1.000000000000000E+20
 24
1.000000000000000E+20
 34
1.000000000000000E+20
 15
-1.000000000000000E+20
 25
-1.000000000000000E+20
 35
-1.000000000000000E+20
146
0.0
 13
0.0
 23
0.0
 33
0.0
 16
1.0
 26
0.0
 36
0.0
 17
0.0
 27
1.0
 37
0.0
 76
     0
330
1B
  0
LAYOUT
  5
26
102
{ACAD_REACTORS
330
1A
102
}
330
1A
100
AcDbPlotSettings
  1

  2
none_device
  4

  6

 40
0.0
 41
0.0
 42
0.0
 43
0.0
 44
0.0
 45
0.0
 46
0.0
 47
0.0
 48
0.0
 49
0.0
140
0.0
141
0.0
142
1.0
143
1.0
 70
   688
 72
     0
 73
     0
 74
     5
  7

 75
    16
 76
     0
 77
     2
 78
   300
147
1.0
148
0.0
149
0.0
100
AcDbLayout
  1
Layout2
 70
     1
 71
     2
 10
0.0
 20
0.0
 11
0.0
 21
0.0
 12
0.0
 22
0.0
 32
0.0
 14
0.0
 24
0.0
 34
0.0
 15
0.0
 25
0.0
 35
0.0
146
0.0
 13
0.0
 23
0.0
 33
0.0
 16
1.0
 26
0.0
 36
0.0
 17
0.0
 27
1.0
 37
0.0
 76
     0
330
23
  0
LAYOUT
  5
22
102
{ACAD_REACTORS
330
1A
102
}
330
1A
100
AcDbPlotSettings
  1

  2
none_device
  4

  6

 40
0.0
 41
0.0
 42
0.0
 43
0.0
 44
0.0
 45
0.0
 46
0.0
 47
0.0
 48
0.0
 49
0.0
140
0.0
141
0.0
142
1.0
143
1.0
 70
  1712
 72
     0
 73
     0
 74
     0
  7

 75
     0
 76
     0
 77
     2
 78
   300
147
1.0
148
0.0
149
0.0
100
AcDbLayout
  1
Model
 70
     1
 71
     0
 10
0.0
 20
0.0
 11
12.0
 21
9.0
 12
0.0
 22
0.0
 32
0.0
 14
1.000000000000000E+20
 24
1.000000000000000E+20
 34
1.000000000000000E+20
 15
-1.000000000000000E+20
 25
-1.000000000000000E+20
 35
-1.000000000000000E+20
146
0.0
 13
0.0
 23
0.0
 33
0.0
 16
1.0
 26
0.0
 36
0.0
 17
0.0
 27
1.0
 37
0.0
 76
     0
330
1F
331
29
  0
MATERIAL
  5
3D
102
{ACAD_REACTORS
330
3B
102
}
330
3B
100
AcDbMaterial
  1
ByBlock
 72
     1
 94
      127
  0
MATERIAL
  5
3C
102
{ACAD_REACTORS
330
3B
102
}
330
3B
100
AcDbMaterial
  1
ByLayer
 72
     1
 94
      127
  0
MATERIAL
  5
3E
102
{ACAD_REACTORS
330
3B
102
}
330
3B
100
AcDbMaterial
  1
Global
 72
     1
 94
      127
  0
MLINESTYLE
  5
18
102
{ACAD_REACTORS
330
17
102
}
330
17
100
AcDbMlineStyle
  2
Standard
 70
     0
  3

 62
   256
 51
90.0
 52
90.0
 71
     2
 49
0.5
 62
   256
  6
BYLAYER
 49
-0.5
 62
   256
  6
BYLAYER
  0
ACDBPLACEHOLDER
  5
F
102
{ACAD_REACTORS
330
E
102
}
330
E
  0
VISUALSTYLE
  5
2F
102
{ACAD_REACTORS
330
2A
102
}
102
{ACAD_XDICTIONARY
360
4C
102
}
330
2A
100
AcDbVisualStyle
  2
2dWireframe
 70
     4
 71
     0
 72
     2
 73
     0
 90
        0
 40
-0.6
 41
-30.0
 62
     5
 63
     7
421
 16777215
 74
     1
 91
        4
 64
     7
 65
   257
 75
     1
175
     1
 42
1.0
 92
        0
 66
   257
 43
1.0
 76
     1
 77
     6
 78
     2
 67
     7
 79
     5
170
     0
171
     0
290
     0
174
     0
 93
        1
 44
0.0
173
     0
291
     0
 45
0.0
  0
VISUALSTYLE
  5
31
102
{ACAD_REACTORS
330
2A
102
}
102
{ACAD_XDICTIONARY
360
50
102
}
330
2A
100
AcDbVisualStyle
  2
3D Hidden
 70
     6
 71
     1
 72
     2
 73
     2
 90
        0
 40
-0.6
 41
-30.0
 62
     5
 63
     7
421
 16777215
 74
     2
 91
        2
 64
     7
 65
   257
 75
     2
175
     1
 42
40.0
 92
        0
 66
   257
 43
1.0
 76
     1
 77
     6
 78
     2
 67
     7
 79
     3
170
     0
171
     0
290
     0
174
     0
 93
        1
 44
0.0
173
     0
291
     0
 45
0.0
  0
VISUALSTYLE
  5
30
102
{ACAD_REACTORS
330
2A
102
}
102
{ACAD_XDICTIONARY
360
4E
102
}
330
2A
100
AcDbVisualStyle
  2
3dWireframe
 70
     5
 71
     0
 72
     2
 73
     0
 90
        0
 40
-0.6
 41
-30.0
 62
     5
 63
     7
421
 16777215
 74
     1
 91
        4
 64
     7
 65
   257
 75
     1
175
     1
 42
1.0
 92
        0
 66
   257
 43
1.0
 76
     1
 77
     6
 78
     2
 67
     7
 79
     5
170
     0
171
     0
290
     0
174
     0
 93
        1
 44
0.0
173
     0
291
     0
 45
0.0
  0
VISUALSTYLE
  5
32
102
{ACAD_REACTORS
330
2A
102
}
102
{ACAD_XDICTIONARY
360
52
102
}
330
2A
100
AcDbVisualStyle
  2
Basic
 70
     7
 71
     1
 72
     0
 73
     1
 90
        0
 40
-0.6
 41
-30.0
 62
     5
 63
     7
421
 16777215
 74
     0
 91
        4
 64
     7
 65
   257
 75
     1
175
     1
 42
1.0
 92
        8
 66
     7
 43
1.0
 76
     1
 77
     6
 78
     2
 67
     7
 79
     5
170
     0
171
     0
290
     0
174
     0
 93
        1
 44
0.0
173
     0
291
     1
 45
0.0
  0
VISUALSTYLE
  5
36
102
{ACAD_REACTORS
330
2A
102
}
102
{ACAD_XDICTIONARY
360
5A
102
}
330
2A
100
AcDbVisualStyle
  2
Brighten
 70
    12
 71
     2
 72
     2
 73
     0
 90
        0
 40
-0.6
 41
-30.0
 62
     5
 63
     7
421
 16777215
 74
     1
 91
        4
 64
     7
 65
   257
 75
     1
175
     1
 42
1.0
 92
        8
 66
     7
 43
1.0
 76
     1
 77
     6
 78
     2
 67
     7
 79
     5
170
     0
171
     0
290
     0
174
     0
 93
        1
 44
50.0
173
     0
291
     1
 45
0.0
  0
VISUALSTYLE
  5
3A
102
{ACAD_REACTORS
330
2A
102
}
102
{ACAD_XDICTIONARY
360
62
102
}
330
2A
100
AcDbVisualStyle
  2
ColorChange
 70
    16
 71
     2
 72
     2
 73
     3
 90
        0
 40
-0.6
 41
-30.0
 62
     5
 63
     8
421
  8421504
 74
     1
 91
        4
 64
     7
 65
   257
 75
     1
175
     1
 42
1.0
 92
        8
 66
     8
424
  8421504
 43
1.0
 76
     1
 77
     6
 78
     2
 67
     7
 79
     5
170
     0
171
     0
290
     0
174
     0
 93
        1
 44
0.0
173
     0
291
     1
 45
0.0
  0
VISUALSTYLE
  5
34
102
{ACAD_REACTORS
330
2A
102
}
102
{ACAD_XDICTIONARY
360
56
102
}
330
2A
100
AcDbVisualStyle
  2
Conceptual
 70
     9
 71
     3
 72
     2
 73
     0
 90
        0
 40
-0.6
 41
-30.0
 62
     5
 63
     7
421
 16777215
 74
     2
 91
        2
 64
     7
 65
   257
 75
     1
175
     1
 42
40.0
 92
        8
 66
     7
 43
1.0
 76
     1
 77
     6
 78
     2
 67
     7
 79
     3
170
     0
171
     0
290
     0
174
     0
 93
        1
 44
0.0
173
     0
291
     0
 45
0.0
  0
VISUALSTYLE
  5
35
102
{ACAD_REACTORS
330
2A
102
}
102
{ACAD_XDICTIONARY
360
58
102
}
330
2A
100
AcDbVisualStyle
  2
Dim
 70
    11
 71
     2
 72
     2
 73
     0
 90
        0
 40
-0.6
 41
-30.0
 62
     5
 63
     7
421
 16777215
 74
     1
 91
        4
 64
     7
 65
   257
 75
     1
175
     1
 42
1.0
 92
        8
 66
     7
 43
1.0
 76
     1
 77
     6
 78
     2
 67
     7
 79
     5
170
     0
171
     0
290
     0
174
     0
 93
        1
 44
-50.0
173
     0
291
     1
 45
0.0
  0
VISUALSTYLE
  5
39
102
{ACAD_REACTORS
330
2A
102
}
102
{ACAD_XDICTIONARY
360
60
102
}
330
2A
100
AcDbVisualStyle
  2
Facepattern
 70
    15
 71
     2
 72
     2
 73
     0
 90
        0
 40
-0.6
 41
-30.0
 62
     5
 63
     7
421
 16777215
 74
     1
 91
        4
 64
     7
 65
   257
 75
     1
175
     1
 42
1.0
 92
        8
 66
     7
 43
1.0
 76
     1
 77
     6
 78
     2
 67
     7
 79
     5
170
     0
171
     0
290
     0
174
     0
 93
        1
 44
0.0
173
     0
291
     1
 45
0.0
  0
VISUALSTYLE
  5
2B
102
{ACAD_REACTORS
330
2A
102
}
102
{ACAD_XDICTIONARY
360
44
102
}
330
2A
100
AcDbVisualStyle
  2
Flat
 70
     0
 71
     2
 72
     1
 73
     1
 90
        2
 40
-0.6
 41
30.0
 62
     5
 63
     7
421
 16777215
 74
     0
 91
        4
 64
     7
 65
   257
 75
     1
175
     1
 42
1.0
 92
        8
 66
     7
 43
1.0
 76
     1
 77
     6
 78
     2
 67
     7
 79
     5
170
     0
171
     0
290
     0
174
     0
 93
       13
 44
0.0
173
     0
291
     1
 45
0.0
  0
VISUALSTYLE
  5
2C
102
{ACAD_REACTORS
330
2A
102
}
102
{ACAD_XDICTIONARY
360
46
102
}
330
2A
100
AcDbVisualStyle
  2
FlatWithEdges
 70
     1
 71
     2
 72
     1
 73
     1
 90
        2
 40
-0.6
 41
30.0
 62
     5
 63
     7
421
 16777215
 74
     1
 91
        4
 64
     7
 65
   257
 75
     1
175
     1
 42
1.0
 92
        0
 66
   257
 43
1.0
 76
     1
 77
     6
 78
     2
 67
     7
 79
     5
170
     0
171
     0
290
     0
174
     0
 93
       13
 44
0.0
173
     0
291
     1
 45
0.0
  0
VISUALSTYLE
  5
2D
102
{ACAD_REACTORS
330
2A
102
}
102
{ACAD_XDICTIONARY
360
48
102
}
330
2A
100
AcDbVisualStyle
  2
Gouraud
 70
     2
 71
     2
 72
     2
 73
     1
 90
        2
 40
-0.6
 41
30.0
 62
     5
 63
     7
421
 16777215
 74
     0
 91
        4
 64
     7
 65
   257
 75
     1
175
     1
 42
1.0
 92
        0
 66
     7
 43
1.0
 76
     1
 77
     6
 78
     2
 67
     7
 79
     5
170
     0
171
     0
290
     0
174
     0
 93
       13
 44
0.0
173
     0
291
     1
 45
0.0
  0
VISUALSTYLE
  5
2E
102
{ACAD_REACTORS
330
2A
102
}
102
{ACAD_XDICTIONARY
360
4A
102
}
330
2A
100
AcDbVisualStyle
  2
GouraudWithEdges
 70
     3
 71
     2
 72
     2
 73
     1
 90
        2
 40
-0.6
 41
30.0
 62
     5
 63
     7
421
 16777215
 74
     1
 91
        4
 64
     7
 65
   257
 75
     1
175
     1
 42
1.0
 92
        0
 66
   257
 43
1.0
 76
     1
 77
     6
 78
     2
 67
     7
 79
     5
170
     0
171
     0
290
     0
174
     0
 93
       13
 44
0.0
173
     0
291
     1
 45
0.0
  0
VISUALSTYLE
  5
38
102
{ACAD_REACTORS
330
2A
102
}
102
{ACAD_XDICTIONARY
360
5E
102
}
330
2A
100
AcDbVisualStyle
  2
Linepattern
 70
    14
 71
     2
 72
     2
 73
     0
 90
        0
 40
-0.6
 41
-30.0
 62
     5
 63
     7
421
 16777215
 74
     1
 91
        4
 64
     7
 65
   257
 75
     7
175
     7
 42
1.0
 92
        8
 66
     7
 43
1.0
 76
     1
 77
     6
 78
     2
 67
     7
 79
     5
170
     0
171
     0
290
     0
174
     0
 93
        1
 44
0.0
173
     0
291
     1
 45
0.0
  0
VISUALSTYLE
  5
33
102
{ACAD_REACTORS
330
2A
102
}
102
{ACAD_XDICTIONARY
360
54
102
}
330
2A
100
AcDbVisualStyle
  2
Realistic
 70
     8
 71
     2
 72
     2
 73
     0
 90
        0
 40
-0.6
 41
-30.0
 62
     5
 63
     7
421
 16777215
 74
     1
 91
        0
 64
     7
 65
   257
 75
     1
175
     1
 42
1.0
 92
        8
 66
     8
424
  7895160
 43
1.0
 76
     1
 77
     6
 78
     2
 67
     7
 79
     5
170
     0
171
     0
290
     0
174
     0
 93
       13
 44
0.0
173
     0
291
     0
 45
0.0
  0
VISUALSTYLE
  5
37
102
{ACAD_REACTORS
330
2A
102
}
102
{ACAD_XDICTIONARY
360
5C
102
}
330
2A
100
AcDbVisualStyle
  2
Thicken
 70
    13
 71
     2
 72
     2
 73
     0
 90
        0
 40
-0.6
 41
-30.0
 62
     5
 63
     7
421
 16777215
 74
     1
 91
        4
 64
     7
 65
   257
 75
     1
175
     1
 42
1.0
 92
       12
 66
     7
 43
1.0
 76
     1
 77
     6
 78
     2
 67
     7
 79
     5
170
     0
171
     0
290
     0
174
     0
 93
        1
 44
0.0
173
     0
291
     1
 45
0.0
  0
DICTIONARY
  5
4C
330
2F
100
AcDbDictionary
280
     1
281
     1
  3
ACAD_XREC_ROUNDTRIP
360
4D
  0
DICTIONARY
  5
50
330
31
100
AcDbDictionary
280
     1
281
     1
  3
ACAD_XREC_ROUNDTRIP
360
51
  0
DICTIONARY
  5
4E
330
30
100
AcDbDictionary
280
     1
281
     1
  3
ACAD_XREC_ROUNDTRIP
360
4F
  0
DICTIONARY
  5
52
330
32
100
AcDbDictionary
280
     1
281
     1
  3
ACAD_XREC_ROUNDTRIP
360
53
  0
DICTIONARY
  5
5A
330
36
100
AcDbDictionary
280
     1
281
     1
  3
ACAD_XREC_ROUNDTRIP
360
5B
  0
DICTIONARY
  5
62
330
3A
100
AcDbDictionary
280
     1
281
     1
  3
ACAD_XREC_ROUNDTRIP
360
63
  0
DICTIONARY
  5
56
330
34
100
AcDbDictionary
280
     1
281
     1
  3
ACAD_XREC_ROUNDTRIP
360
57
  0
DICTIONARY
  5
58
330
35
100
AcDbDictionary
280
     1
281
     1
  3
ACAD_XREC_ROUNDTRIP
360
59
  0
DICTIONARY
  5
60
330
39
100
AcDbDictionary
280
     1
281
     1
  3
ACAD_XREC_ROUNDTRIP
360
61
  0
DICTIONARY
  5
44
330
2B
100
AcDbDictionary
280
     1
281
     1
  3
ACAD_XREC_ROUNDTRIP
360
45
  0
DICTIONARY
  5
46
330
2C
100
AcDbDictionary
280
     1
281
     1
  3
ACAD_XREC_ROUNDTRIP
360
47
  0
DICTIONARY
  5
48
330
2D
100
AcDbDictionary
280
     1
281
     1
  3
ACAD_XREC_ROUNDTRIP
360
49
  0
DICTIONARY
  5
4A
330
2E
100
AcDbDictionary
280
     1
281
     1
  3
ACAD_XREC_ROUNDTRIP
360
4B
  0
DICTIONARY
  5
5E
330
38
100
AcDbDictionary
280
     1
281
     1
  3
ACAD_XREC_ROUNDTRIP
360
5F
  0
DICTIONARY
  5
54
330
33
100
AcDbDictionary
280
     1
281
     1
  3
ACAD_XREC_ROUNDTRIP
360
55
  0
DICTIONARY
  5
5C
330
37
100
AcDbDictionary
280
     1
281
     1
  3
ACAD_XREC_ROUNDTRIP
360
5D
  0
XRECORD
  5
4D
102
{ACAD_REACTORS
330
4C
102
}
330
4C
100
AcDbXrecord
280
     1
102
RTVSPropertyOp0
 70
     1
102
RTVSPropertyOp1
 70
     1
102
RTVSPropertyOp2
 70
     1
102
RTVSPropertyOp3
 70
     1
102
RTVSPropertyOp4
 70
     1
102
RTVSPropertyOp5
 70
     1
102
RTVSPropertyOp6
 70
     1
102
RTVSPropertyOp7
 70
     1
102
RTVSPropertyOp8
 70
     1
102
RTVSPropertyOp9
 70
     1
102
RTVSPropertyOp10
 70
     1
102
RTVSPropertyOp11
 70
     1
102
RTVSPropertyOp12
 70
     1
102
RTVSPropertyOp13
 70
     1
102
RTVSPropertyOp14
 70
     1
102
RTVSPropertyOp15
 70
     1
102
RTVSPropertyOp16
 70
     1
102
RTVSPropertyOp17
 70
     1
102
RTVSPropertyOp18
 70
     1
102
RTVSPropertyOp19
 70
     1
102
RTVSPropertyOp20
 70
     1
102
RTVSPropertyOp21
 70
     1
102
RTVSPropertyOp22
 70
     1
102
RTVSPropertyOp23
 70
     1
102
RTVSPropertyOp24
 70
     1
102
RTVSPropertyOp25
 70
     1
102
RTVSPropertyOp26
 70
     1
102
RTVSPropertyOp27
 70
     1
102
RTVSPropertyOp28
 70
     1
102
RTVSPropertyOp29
 70
     1
102
RTVSPropertyOp30
 70
     1
102
RTVSPropertyOp31
 70
     1
102
RTVSPropertyOp32
 70
     1
  0
XRECORD
  5
51
102
{ACAD_REACTORS
330
50
102
}
330
50
100
AcDbXrecord
280
     1
102
RTVSPropertyOp0
 70
     1
102
RTVSPropertyOp1
 70
     1
102
RTVSPropertyOp2
 70
     1
102
RTVSPropertyOp3
 70
     1
102
RTVSPropertyOp4
 70
     1
102
RTVSPropertyOp5
 70
     1
102
RTVSPropertyOp6
 70
     1
102
RTVSPropertyOp7
 70
     1
102
RTVSPropertyOp8
 70
     1
102
RTVSPropertyOp9
 70
     1
102
RTVSPropertyOp10
 70
     1
102
RTVSPropertyOp11
 70
     1
102
RTVSPropertyOp12
 70
     1
102
RTVSPropertyOp13
 70
     1
102
RTVSPropertyOp14
 70
     1
102
RTVSPropertyOp15
 70
     1
102
RTVSPropertyOp16
 70
     1
102
RTVSPropertyOp17
 70
     1
102
RTVSPropertyOp18
 70
     1
102
RTVSPropertyOp19
 70
     1
102
RTVSPropertyOp20
 70
     1
102
RTVSPropertyOp21
 70
     1
102
RTVSPropertyOp22
 70
     1
102
RTVSPropertyOp23
 70
     1
102
RTVSPropertyOp24
 70
     1
102
RTVSPropertyOp25
 70
     1
102
RTVSPropertyOp26
 70
     1
102
RTVSPropertyOp27
 70
     1
102
RTVSPropertyOp28
 70
     1
102
RTVSPropertyOp29
 70
     1
102
RTVSPropertyOp30
 70
     1
102
RTVSPropertyOp31
 70
     1
102
RTVSPropertyOp32
 70
     1
  0
XRECORD
  5
4F
102
{ACAD_REACTORS
330
4E
102
}
330
4E
100
AcDbXrecord
280
     1
102
RTVSPropertyOp0
 70
     1
102
RTVSPropertyOp1
 70
     1
102
RTVSPropertyOp2
 70
     1
102
RTVSPropertyOp3
 70
     1
102
RTVSPropertyOp4
 70
     1
102
RTVSPropertyOp5
 70
     1
102
RTVSPropertyOp6
 70
     1
102
RTVSPropertyOp7
 70
     1
102
RTVSPropertyOp8
 70
     1
102
RTVSPropertyOp9
 70
     1
102
RTVSPropertyOp10
 70
     1
102
RTVSPropertyOp11
 70
     1
102
RTVSPropertyOp12
 70
     1
102
RTVSPropertyOp13
 70
     1
102
RTVSPropertyOp14
 70
     1
102
RTVSPropertyOp15
 70
     1
102
RTVSPropertyOp16
 70
     1
102
RTVSPropertyOp17
 70
     1
102
RTVSPropertyOp18
 70
     1
102
RTVSPropertyOp19
 70
     1
102
RTVSPropertyOp20
 70
     1
102
RTVSPropertyOp21
 70
     1
102
RTVSPropertyOp22
 70
     1
102
RTVSPropertyOp23
 70
     1
102
RTVSPropertyOp24
 70
     1
102
RTVSPropertyOp25
 70
     1
102
RTVSPropertyOp26
 70
     1
102
RTVSPropertyOp27
 70
     1
102
RTVSPropertyOp28
 70
     1
102
RTVSPropertyOp29
 70
     1
102
RTVSPropertyOp30
 70
     1
102
RTVSPropertyOp31
 70
     1
102
RTVSPropertyOp32
 70
     1
  0
XRECORD
  5
53
102
{ACAD_REACTORS
330
52
102
}
330
52
100
AcDbXrecord
280
     1
102
RTVSPropertyOp0
 70
     1
102
RTVSPropertyOp1
 70
     1
102
RTVSPropertyOp2
 70
     1
102
RTVSPropertyOp3
 70
     1
102
RTVSPropertyOp4
 70
     1
102
RTVSPropertyOp5
 70
     1
102
RTVSPropertyOp6
 70
     1
102
RTVSPropertyOp7
 70
     1
102
RTVSPropertyOp8
 70
     1
102
RTVSPropertyOp9
 70
     1
102
RTVSPropertyOp10
 70
     1
102
RTVSPropertyOp11
 70
     1
102
RTVSPropertyOp12
 70
     1
102
RTVSPropertyOp13
 70
     1
102
RTVSPropertyOp14
 70
     1
102
RTVSPropertyOp15
 70
     1
102
RTVSPropertyOp16
 70
     1
102
RTVSPropertyOp17
 70
     1
102
RTVSPropertyOp18
 70
     1
102
RTVSPropertyOp19
 70
     1
102
RTVSPropertyOp20
 70
     1
102
RTVSPropertyOp21
 70
     1
102
RTVSPropertyOp22
 70
     1
102
RTVSPropertyOp23
 70
     1
102
RTVSPropertyOp24
 70
     1
102
RTVSPropertyOp25
 70
     1
102
RTVSPropertyOp26
 70
     1
102
RTVSPropertyOp27
 70
     1
102
RTVSPropertyOp28
 70
     1
102
RTVSPropertyOp29
 70
     1
102
RTVSPropertyOp30
 70
     1
102
RTVSPropertyOp31
 70
     1
102
RTVSPropertyOp32
 70
     1
  0
XRECORD
  5
5B
102
{ACAD_REACTORS
330
5A
102
}
330
5A
100
AcDbXrecord
280
     1
102
RTVSPropertyOp0
 70
     1
102
RTVSPropertyOp1
 70
     1
102
RTVSPropertyOp2
 70
     1
102
RTVSPropertyOp3
 70
     1
102
RTVSPropertyOp4
 70
     1
102
RTVSPropertyOp5
 70
     1
102
RTVSPropertyOp6
 70
     1
102
RTVSPropertyOp7
 70
     1
102
RTVSPropertyOp8
 70
     1
102
RTVSPropertyOp9
 70
     1
102
RTVSPropertyOp10
 70
     1
102
RTVSPropertyOp11
 70
     1
102
RTVSPropertyOp12
 70
     1
102
RTVSPropertyOp13
 70
     1
102
RTVSPropertyOp14
 70
     1
102
RTVSPropertyOp15
 70
     1
102
RTVSPropertyOp16
 70
     1
102
RTVSPropertyOp17
 70
     1
102
RTVSPropertyOp18
 70
     1
102
RTVSPropertyOp19
 70
     1
102
RTVSPropertyOp20
 70
     1
102
RTVSPropertyOp21
 70
     1
102
RTVSPropertyOp22
 70
     1
102
RTVSPropertyOp23
 70
     1
102
RTVSPropertyOp24
 70
     1
102
RTVSPropertyOp25
 70
     1
102
RTVSPropertyOp26
 70
     1
102
RTVSPropertyOp27
 70
     1
102
RTVSPropertyOp28
 70
     1
102
RTVSPropertyOp29
 70
     1
102
RTVSPropertyOp30
 70
     1
102
RTVSPropertyOp31
 70
     1
102
RTVSPropertyOp32
 70
     1
  0
XRECORD
  5
63
102
{ACAD_REACTORS
330
62
102
}
330
62
100
AcDbXrecord
280
     1
102
RTVSPropertyOp0
 70
     1
102
RTVSPropertyOp1
 70
     1
102
RTVSPropertyOp2
 70
     1
102
RTVSPropertyOp3
 70
     1
102
RTVSPropertyOp4
 70
     1
102
RTVSPropertyOp5
 70
     1
102
RTVSPropertyOp6
 70
     1
102
RTVSPropertyOp7
 70
     1
102
RTVSPropertyOp8
 70
     1
102
RTVSPropertyOp9
 70
     1
102
RTVSPropertyOp10
 70
     1
102
RTVSPropertyOp11
 70
     1
102
RTVSPropertyOp12
 70
     1
102
RTVSPropertyOp13
 70
     1
102
RTVSPropertyOp14
 70
     1
102
RTVSPropertyOp15
 70
     1
102
RTVSPropertyOp16
 70
     1
102
RTVSPropertyOp17
 70
     1
102
RTVSPropertyOp18
 70
     1
102
RTVSPropertyOp19
 70
     1
102
RTVSPropertyOp20
 70
     1
102
RTVSPropertyOp21
 70
     1
102
RTVSPropertyOp22
 70
     1
102
RTVSPropertyOp23
 70
     1
102
RTVSPropertyOp24
 70
     1
102
RTVSPropertyOp25
 70
     1
102
RTVSPropertyOp26
 70
     1
102
RTVSPropertyOp27
 70
     1
102
RTVSPropertyOp28
 70
     1
102
RTVSPropertyOp29
 70
     1
102
RTVSPropertyOp30
 70
     1
102
RTVSPropertyOp31
 70
     1
102
RTVSPropertyOp32
 70
     1
  0
XRECORD
  5
57
102
{ACAD_REACTORS
330
56
102
}
330
56
100
AcDbXrecord
280
     1
102
RTVSPropertyOp0
 70
     1
102
RTVSPropertyOp1
 70
     1
102
RTVSPropertyOp2
 70
     1
102
RTVSPropertyOp3
 70
     1
102
RTVSPropertyOp4
 70
     1
102
RTVSPropertyOp5
 70
     1
102
RTVSPropertyOp6
 70
     1
102
RTVSPropertyOp7
 70
     1
102
RTVSPropertyOp8
 70
     1
102
RTVSPropertyOp9
 70
     1
102
RTVSPropertyOp10
 70
     1
102
RTVSPropertyOp11
 70
     1
102
RTVSPropertyOp12
 70
     1
102
RTVSPropertyOp13
 70
     1
102
RTVSPropertyOp14
 70
     1
102
RTVSPropertyOp15
 70
     1
102
RTVSPropertyOp16
 70
     1
102
RTVSPropertyOp17
 70
     1
102
RTVSPropertyOp18
 70
     1
102
RTVSPropertyOp19
 70
     1
102
RTVSPropertyOp20
 70
     1
102
RTVSPropertyOp21
 70
     1
102
RTVSPropertyOp22
 70
     1
102
RTVSPropertyOp23
 70
     1
102
RTVSPropertyOp24
 70
     1
102
RTVSPropertyOp25
 70
     1
102
RTVSPropertyOp26
 70
     1
102
RTVSPropertyOp27
 70
     1
102
RTVSPropertyOp28
 70
     1
102
RTVSPropertyOp29
 70
     1
102
RTVSPropertyOp30
 70
     1
102
RTVSPropertyOp31
 70
     1
102
RTVSPropertyOp32
 70
     1
  0
XRECORD
  5
59
102
{ACAD_REACTORS
330
58
102
}
330
58
100
AcDbXrecord
280
     1
102
RTVSPropertyOp0
 70
     1
102
RTVSPropertyOp1
 70
     1
102
RTVSPropertyOp2
 70
     1
102
RTVSPropertyOp3
 70
     1
102
RTVSPropertyOp4
 70
     1
102
RTVSPropertyOp5
 70
     1
102
RTVSPropertyOp6
 70
     1
102
RTVSPropertyOp7
 70
     1
102
RTVSPropertyOp8
 70
     1
102
RTVSPropertyOp9
 70
     1
102
RTVSPropertyOp10
 70
     1
102
RTVSPropertyOp11
 70
     1
102
RTVSPropertyOp12
 70
     1
102
RTVSPropertyOp13
 70
     1
102
RTVSPropertyOp14
 70
     1
102
RTVSPropertyOp15
 70
     1
102
RTVSPropertyOp16
 70
     1
102
RTVSPropertyOp17
 70
     1
102
RTVSPropertyOp18
 70
     1
102
RTVSPropertyOp19
 70
     1
102
RTVSPropertyOp20
 70
     1
102
RTVSPropertyOp21
 70
     1
102
RTVSPropertyOp22
 70
     1
102
RTVSPropertyOp23
 70
     1
102
RTVSPropertyOp24
 70
     1
102
RTVSPropertyOp25
 70
     1
102
RTVSPropertyOp26
 70
     1
102
RTVSPropertyOp27
 70
     1
102
RTVSPropertyOp28
 70
     1
102
RTVSPropertyOp29
 70
     1
102
RTVSPropertyOp30
 70
     1
102
RTVSPropertyOp31
 70
     1
102
RTVSPropertyOp32
 70
     1
  0
XRECORD
  5
61
102
{ACAD_REACTORS
330
60
102
}
330
60
100
AcDbXrecord
280
     1
102
RTVSPropertyOp0
 70
     1
102
RTVSPropertyOp1
 70
     1
102
RTVSPropertyOp2
 70
     1
102
RTVSPropertyOp3
 70
     1
102
RTVSPropertyOp4
 70
     1
102
RTVSPropertyOp5
 70
     1
102
RTVSPropertyOp6
 70
     1
102
RTVSPropertyOp7
 70
     1
102
RTVSPropertyOp8
 70
     1
102
RTVSPropertyOp9
 70
     1
102
RTVSPropertyOp10
 70
     1
102
RTVSPropertyOp11
 70
     1
102
RTVSPropertyOp12
 70
     1
102
RTVSPropertyOp13
 70
     1
102
RTVSPropertyOp14
 70
     1
102
RTVSPropertyOp15
 70
     1
102
RTVSPropertyOp16
 70
     1
102
RTVSPropertyOp17
 70
     1
102
RTVSPropertyOp18
 70
     1
102
RTVSPropertyOp19
 70
     1
102
RTVSPropertyOp20
 70
     1
102
RTVSPropertyOp21
 70
     1
102
RTVSPropertyOp22
 70
     1
102
RTVSPropertyOp23
 70
     1
102
RTVSPropertyOp24
 70
     1
102
RTVSPropertyOp25
 70
     1
102
RTVSPropertyOp26
 70
     1
102
RTVSPropertyOp27
 70
     1
102
RTVSPropertyOp28
 70
     1
102
RTVSPropertyOp29
 70
     1
102
RTVSPropertyOp30
 70
     1
102
RTVSPropertyOp31
 70
     1
102
RTVSPropertyOp32
 70
     1
  0
XRECORD
  5
45
102
{ACAD_REACTORS
330
44
102
}
330
44
100
AcDbXrecord
280
     1
102
RTVSPropertyOp0
 70
     1
102
RTVSPropertyOp1
 70
     1
102
RTVSPropertyOp2
 70
     1
102
RTVSPropertyOp3
 70
     1
102
RTVSPropertyOp4
 70
     1
102
RTVSPropertyOp5
 70
     1
102
RTVSPropertyOp6
 70
     1
102
RTVSPropertyOp7
 70
     1
102
RTVSPropertyOp8
 70
     1
102
RTVSPropertyOp9
 70
     1
102
RTVSPropertyOp10
 70
     1
102
RTVSPropertyOp11
 70
     1
102
RTVSPropertyOp12
 70
     1
102
RTVSPropertyOp13
 70
     1
102
RTVSPropertyOp14
 70
     1
102
RTVSPropertyOp15
 70
     1
102
RTVSPropertyOp16
 70
     1
102
RTVSPropertyOp17
 70
     1
102
RTVSPropertyOp18
 70
     1
102
RTVSPropertyOp19
 70
     1
102
RTVSPropertyOp20
 70
     1
102
RTVSPropertyOp21
 70
     1
102
RTVSPropertyOp22
 70
     1
102
RTVSPropertyOp23
 70
     1
102
RTVSPropertyOp24
 70
     1
102
RTVSPropertyOp25
 70
     1
102
RTVSPropertyOp26
 70
     1
102
RTVSPropertyOp27
 70
     1
102
RTVSPropertyOp28
 70
     1
102
RTVSPropertyOp29
 70
     1
102
RTVSPropertyOp30
 70
     1
102
RTVSPropertyOp31
 70
     1
102
RTVSPropertyOp32
 70
     1
  0
XRECORD
  5
47
102
{ACAD_REACTORS
330
46
102
}
330
46
100
AcDbXrecord
280
     1
102
RTVSPropertyOp0
 70
     1
102
RTVSPropertyOp1
 70
     1
102
RTVSPropertyOp2
 70
     1
102
RTVSPropertyOp3
 70
     1
102
RTVSPropertyOp4
 70
     1
102
RTVSPropertyOp5
 70
     1
102
RTVSPropertyOp6
 70
     1
102
RTVSPropertyOp7
 70
     1
102
RTVSPropertyOp8
 70
     1
102
RTVSPropertyOp9
 70
     1
102
RTVSPropertyOp10
 70
     1
102
RTVSPropertyOp11
 70
     1
102
RTVSPropertyOp12
 70
     1
102
RTVSPropertyOp13
 70
     1
102
RTVSPropertyOp14
 70
     1
102
RTVSPropertyOp15
 70
     1
102
RTVSPropertyOp16
 70
     1
102
RTVSPropertyOp17
 70
     1
102
RTVSPropertyOp18
 70
     1
102
RTVSPropertyOp19
 70
     1
102
RTVSPropertyOp20
 70
     1
102
RTVSPropertyOp21
 70
     1
102
RTVSPropertyOp22
 70
     1
102
RTVSPropertyOp23
 70
     1
102
RTVSPropertyOp24
 70
     1
102
RTVSPropertyOp25
 70
     1
102
RTVSPropertyOp26
 70
     1
102
RTVSPropertyOp27
 70
     1
102
RTVSPropertyOp28
 70
     1
102
RTVSPropertyOp29
 70
     1
102
RTVSPropertyOp30
 70
     1
102
RTVSPropertyOp31
 70
     1
102
RTVSPropertyOp32
 70
     1
  0
XRECORD
  5
49
102
{ACAD_REACTORS
330
48
102
}
330
48
100
AcDbXrecord
280
     1
102
RTVSPropertyOp0
 70
     1
102
RTVSPropertyOp1
 70
     1
102
RTVSPropertyOp2
 70
     1
102
RTVSPropertyOp3
 70
     1
102
RTVSPropertyOp4
 70
     1
102
RTVSPropertyOp5
 70
     1
102
RTVSPropertyOp6
 70
     1
102
RTVSPropertyOp7
 70
     1
102
RTVSPropertyOp8
 70
     1
102
RTVSPropertyOp9
 70
     1
102
RTVSPropertyOp10
 70
     1
102
RTVSPropertyOp11
 70
     1
102
RTVSPropertyOp12
 70
     1
102
RTVSPropertyOp13
 70
     1
102
RTVSPropertyOp14
 70
     1
102
RTVSPropertyOp15
 70
     1
102
RTVSPropertyOp16
 70
     1
102
RTVSPropertyOp17
 70
     1
102
RTVSPropertyOp18
 70
     1
102
RTVSPropertyOp19
 70
     1
102
RTVSPropertyOp20
 70
     1
102
RTVSPropertyOp21
 70
     1
102
RTVSPropertyOp22
 70
     1
102
RTVSPropertyOp23
 70
     1
102
RTVSPropertyOp24
 70
     1
102
RTVSPropertyOp25
 70
     1
102
RTVSPropertyOp26
 70
     1
102
RTVSPropertyOp27
 70
     1
102
RTVSPropertyOp28
 70
     1
102
RTVSPropertyOp29
 70
     1
102
RTVSPropertyOp30
 70
     1
102
RTVSPropertyOp31
 70
     1
102
RTVSPropertyOp32
 70
     1
  0
XRECORD
  5
4B
102
{ACAD_REACTORS
330
4A
102
}
330
4A
100
AcDbXrecord
280
     1
102
RTVSPropertyOp0
 70
     1
102
RTVSPropertyOp1
 70
     1
102
RTVSPropertyOp2
 70
     1
102
RTVSPropertyOp3
 70
     1
102
RTVSPropertyOp4
 70
     1
102
RTVSPropertyOp5
 70
     1
102
RTVSPropertyOp6
 70
     1
102
RTVSPropertyOp7
 70
     1
102
RTVSPropertyOp8
 70
     1
102
RTVSPropertyOp9
 70
     1
102
RTVSPropertyOp10
 70
     1
102
RTVSPropertyOp11
 70
     1
102
RTVSPropertyOp12
 70
     1
102
RTVSPropertyOp13
 70
     1
102
RTVSPropertyOp14
 70
     1
102
RTVSPropertyOp15
 70
     1
102
RTVSPropertyOp16
 70
     1
102
RTVSPropertyOp17
 70
     1
102
RTVSPropertyOp18
 70
     1
102
RTVSPropertyOp19
 70
     1
102
RTVSPropertyOp20
 70
     1
102
RTVSPropertyOp21
 70
     1
102
RTVSPropertyOp22
 70
     1
102
RTVSPropertyOp23
 70
     1
102
RTVSPropertyOp24
 70
     1
102
RTVSPropertyOp25
 70
     1
102
RTVSPropertyOp26
 70
     1
102
RTVSPropertyOp27
 70
     1
102
RTVSPropertyOp28
 70
     1
102
RTVSPropertyOp29
 70
     1
102
RTVSPropertyOp30
 70
     1
102
RTVSPropertyOp31
 70
     1
102
RTVSPropertyOp32
 70
     1
  0
XRECORD
  5
5F
102
{ACAD_REACTORS
330
5E
102
}
330
5E
100
AcDbXrecord
280
     1
102
RTVSPropertyOp0
 70
     1
102
RTVSPropertyOp1
 70
     1
102
RTVSPropertyOp2
 70
     1
102
RTVSPropertyOp3
 70
     1
102
RTVSPropertyOp4
 70
     1
102
RTVSPropertyOp5
 70
     1
102
RTVSPropertyOp6
 70
     1
102
RTVSPropertyOp7
 70
     1
102
RTVSPropertyOp8
 70
     1
102
RTVSPropertyOp9
 70
     1
102
RTVSPropertyOp10
 70
     1
102
RTVSPropertyOp11
 70
     1
102
RTVSPropertyOp12
 70
     1
102
RTVSPropertyOp13
 70
     1
102
RTVSPropertyOp14
 70
     1
102
RTVSPropertyOp15
 70
     1
102
RTVSPropertyOp16
 70
     1
102
RTVSPropertyOp17
 70
     1
102
RTVSPropertyOp18
 70
     1
102
RTVSPropertyOp19
 70
     1
102
RTVSPropertyOp20
 70
     1
102
RTVSPropertyOp21
 70
     1
102
RTVSPropertyOp22
 70
     1
102
RTVSPropertyOp23
 70
     1
102
RTVSPropertyOp24
 70
     1
102
RTVSPropertyOp25
 70
     1
102
RTVSPropertyOp26
 70
     1
102
RTVSPropertyOp27
 70
     1
102
RTVSPropertyOp28
 70
     1
102
RTVSPropertyOp29
 70
     1
102
RTVSPropertyOp30
 70
     1
102
RTVSPropertyOp31
 70
     1
102
RTVSPropertyOp32
 70
     1
  0
XRECORD
  5
55
102
{ACAD_REACTORS
330
54
102
}
330
54
100
AcDbXrecord
280
     1
102
RTVSPropertyOp0
 70
     1
102
RTVSPropertyOp1
 70
     1
102
RTVSPropertyOp2
 70
     1
102
RTVSPropertyOp3
 70
     1
102
RTVSPropertyOp4
 70
     1
102
RTVSPropertyOp5
 70
     1
102
RTVSPropertyOp6
 70
     1
102
RTVSPropertyOp7
 70
     1
102
RTVSPropertyOp8
 70
     1
102
RTVSPropertyOp9
 70
     1
102
RTVSPropertyOp10
 70
     1
102
RTVSPropertyOp11
 70
     1
102
RTVSPropertyOp12
 70
     1
102
RTVSPropertyOp13
 70
     1
102
RTVSPropertyOp14
 70
     1
102
RTVSPropertyOp15
 70
     1
102
RTVSPropertyOp16
 70
     1
102
RTVSPropertyOp17
 70
     1
102
RTVSPropertyOp18
 70
     1
102
RTVSPropertyOp19
 70
     1
102
RTVSPropertyOp20
 70
     1
102
RTVSPropertyOp21
 70
     1
102
RTVSPropertyOp22
 70
     1
102
RTVSPropertyOp23
 70
     1
102
RTVSPropertyOp24
 70
     1
102
RTVSPropertyOp25
 70
     1
102
RTVSPropertyOp26
 70
     1
102
RTVSPropertyOp27
 70
     1
102
RTVSPropertyOp28
 70
     1
102
RTVSPropertyOp29
 70
     1
102
RTVSPropertyOp30
 70
     1
102
RTVSPropertyOp31
 70
     1
102
RTVSPropertyOp32
 70
     1
  0
XRECORD
  5
5D
102
{ACAD_REACTORS
330
5C
102
}
330
5C
100
AcDbXrecord
280
     1
102
RTVSPropertyOp0
 70
     1
102
RTVSPropertyOp1
 70
     1
102
RTVSPropertyOp2
 70
     1
102
RTVSPropertyOp3
 70
     1
102
RTVSPropertyOp4
 70
     1
102
RTVSPropertyOp5
 70
     1
102
RTVSPropertyOp6
 70
     1
102
RTVSPropertyOp7
 70
     1
102
RTVSPropertyOp8
 70
     1
102
RTVSPropertyOp9
 70
     1
102
RTVSPropertyOp10
 70
     1
102
RTVSPropertyOp11
 70
     1
102
RTVSPropertyOp12
 70
     1
102
RTVSPropertyOp13
 70
     1
102
RTVSPropertyOp14
 70
     1
102
RTVSPropertyOp15
 70
     1
102
RTVSPropertyOp16
 70
     1
102
RTVSPropertyOp17
 70
     1
102
RTVSPropertyOp18
 70
     1
102
RTVSPropertyOp19
 70
     1
102
RTVSPropertyOp20
 70
     1
102
RTVSPropertyOp21
 70
     1
102
RTVSPropertyOp22
 70
     1
102
RTVSPropertyOp23
 70
     1
102
RTVSPropertyOp24
 70
     1
102
RTVSPropertyOp25
 70
     1
102
RTVSPropertyOp26
 70
     1
102
RTVSPropertyOp27
 70
     1
102
RTVSPropertyOp28
 70
     1
102
RTVSPropertyOp29
 70
     1
102
RTVSPropertyOp30
 70
     1
102
RTVSPropertyOp31
 70
     1
102
RTVSPropertyOp32
 70
     1
  0
ENDSEC
  0
EOF
